<svg width="810" height="810" viewBox="0 0 810 810" fill="none" xmlns="http://www.w3.org/2000/svg">
<g clip-path="url(#clip0_601_12)">
<circle cx="406" cy="407" r="400" fill="#211F52"/>
<path d="M258.747 456.133L273.168 422.088H276.456L290.877 456.133H287.356L274.1 424.185H275.446L262.191 456.133H258.747ZM264.443 447.02L265.427 444.094H283.783L284.767 447.02H264.443Z" fill="#FFF9E7"/>
<path d="M295.459 456.133V420.068H298.67V456.133H295.459Z" fill="#FFF9E7"/>
<path d="M317.103 455.149C314.851 455.149 312.832 454.631 311.019 453.57C309.207 452.508 307.783 451.058 306.747 449.168C305.712 447.278 305.194 445.13 305.194 442.696C305.194 440.262 305.712 438.113 306.747 436.249C307.783 434.385 309.207 432.935 311.019 431.9C312.832 430.864 314.851 430.346 317.103 430.346C319.2 430.346 321.09 430.812 322.799 431.744C324.482 432.676 325.828 434.075 326.812 435.939C327.796 437.777 328.314 440.029 328.314 442.696C328.314 445.363 327.822 447.615 326.812 449.453C325.828 451.291 324.482 452.715 322.799 453.673C321.116 454.657 319.226 455.149 317.103 455.149ZM317.699 465.79C315.524 465.79 313.453 465.453 311.485 464.78C309.518 464.107 307.886 463.123 306.67 461.854L308.301 459.24C309.414 460.301 310.786 461.155 312.417 461.803C314.048 462.424 315.783 462.761 317.621 462.761C320.624 462.761 322.825 462.01 324.249 460.508C325.647 459.007 326.372 456.651 326.372 453.492V447.123L326.812 442.748L326.501 438.372V430.631H329.556V453.052C329.556 457.453 328.547 460.689 326.553 462.761C324.56 464.754 321.608 465.79 317.699 465.79ZM317.44 452.094C319.174 452.094 320.728 451.706 322.074 450.903C323.42 450.1 324.508 449.013 325.285 447.589C326.061 446.191 326.45 444.56 326.45 442.696C326.45 440.858 326.061 439.227 325.285 437.829C324.508 436.431 323.446 435.343 322.074 434.541C320.728 433.738 319.174 433.35 317.44 433.35C315.731 433.35 314.178 433.738 312.806 434.541C311.433 435.343 310.372 436.431 309.595 437.829C308.819 439.227 308.456 440.832 308.456 442.696C308.456 444.534 308.844 446.165 309.595 447.589C310.372 448.987 311.433 450.1 312.806 450.903C314.178 451.706 315.705 452.094 317.44 452.094Z" fill="#FFF9E7"/>
<path d="M348.146 456.366C345.841 456.366 343.77 455.796 341.958 454.683C340.146 453.57 338.722 452.016 337.66 450.049C336.599 448.081 336.081 445.829 336.081 443.343C336.081 440.78 336.599 438.528 337.66 436.586C338.722 434.644 340.146 433.117 341.958 432.003C343.77 430.89 345.816 430.346 348.146 430.346C350.502 430.346 352.573 430.916 354.385 432.029C356.197 433.143 357.621 434.67 358.657 436.612C359.693 438.528 360.21 440.78 360.21 443.343C360.21 445.88 359.693 448.107 358.657 450.075C357.621 452.042 356.172 453.57 354.359 454.683C352.521 455.796 350.45 456.366 348.146 456.366ZM348.146 453.311C349.854 453.311 351.382 452.897 352.702 452.068C354.023 451.24 355.058 450.075 355.835 448.573C356.612 447.071 356.974 445.311 356.974 443.343C356.974 441.324 356.586 439.589 355.835 438.088C355.058 436.586 354.023 435.447 352.702 434.618C351.382 433.79 349.88 433.376 348.197 433.376C346.515 433.376 345.013 433.79 343.693 434.618C342.372 435.447 341.311 436.612 340.534 438.088C339.757 439.589 339.369 441.324 339.369 443.343C339.369 445.311 339.757 447.071 340.534 448.573C341.311 450.075 342.372 451.24 343.667 452.068C344.961 452.897 346.463 453.311 348.146 453.311Z" fill="#FFF9E7"/>
<path d="M396.353 430.347C398.269 430.347 399.951 430.735 401.375 431.538C402.799 432.34 403.913 433.531 404.715 435.162C405.518 436.793 405.906 438.839 405.906 441.298V456.133H402.696V441.635C402.696 438.942 402.1 436.923 400.909 435.525C399.718 434.127 398.036 433.453 395.887 433.453C394.256 433.453 392.858 433.816 391.667 434.541C390.476 435.266 389.57 436.327 388.922 437.699C388.275 439.072 387.964 440.729 387.964 442.67V456.081H384.754V441.583C384.754 438.89 384.159 436.871 382.942 435.473C381.751 434.101 380.042 433.402 377.893 433.402C376.288 433.402 374.89 433.764 373.699 434.489C372.508 435.214 371.576 436.275 370.929 437.648C370.281 439.02 369.971 440.677 369.971 442.619V456.03H366.76V430.502H369.815V437.415L369.324 436.198C370.048 434.36 371.214 432.91 372.819 431.848C374.424 430.787 376.34 430.269 378.514 430.269C380.819 430.269 382.786 430.89 384.417 432.133C386.048 433.376 387.084 435.266 387.576 437.751L386.307 437.208C387.006 435.136 388.223 433.453 389.984 432.185C391.77 430.994 393.893 430.347 396.353 430.347Z" fill="#FFF9E7"/>
<path d="M421.285 456.366C419.498 456.366 417.971 456.055 416.65 455.408C415.356 454.787 414.346 453.906 413.647 452.793C412.948 451.68 412.612 450.385 412.612 448.935C412.612 447.615 412.896 446.398 413.492 445.311C414.087 444.223 415.045 443.343 416.366 442.696C417.712 442.023 419.498 441.712 421.751 441.712H429.906V444.301H421.828C419.55 444.301 417.945 444.741 417.065 445.621C416.184 446.502 415.744 447.589 415.744 448.884C415.744 450.333 416.262 451.498 417.324 452.379C418.385 453.259 419.861 453.699 421.751 453.699C423.563 453.699 425.116 453.259 426.411 452.353C427.705 451.473 428.663 450.178 429.285 448.495L430.01 450.877C429.414 452.56 428.353 453.906 426.877 454.916C425.427 455.848 423.537 456.366 421.285 456.366ZM429.466 456.133V450.489L429.336 449.557V440.133C429.336 437.958 428.767 436.301 427.654 435.136C426.54 433.971 424.858 433.376 422.631 433.376C421.103 433.376 419.628 433.66 418.256 434.204C416.883 434.748 415.692 435.473 414.735 436.405L413.285 433.816C414.476 432.702 415.925 431.874 417.608 431.253C419.291 430.657 421.052 430.346 422.942 430.346C425.997 430.346 428.379 431.175 430.036 432.806C431.693 434.437 432.547 436.922 432.547 440.262V456.107H429.466V456.133Z" fill="#FFF9E7"/>
<path d="M466.437 456.418C462.398 456.418 459.239 455.175 456.909 452.664C454.605 450.178 453.44 446.476 453.44 441.583V422.088H456.78V441.427C456.78 445.44 457.608 448.418 459.317 450.334C461 452.249 463.381 453.207 466.437 453.207C469.543 453.207 471.925 452.249 473.608 450.334C475.291 448.418 476.145 445.466 476.145 441.427V422.088H479.381V441.583C479.381 446.476 478.242 450.178 475.938 452.664C473.634 455.175 470.475 456.418 466.437 456.418Z" fill="#FFF9E7"/>
<path d="M500.844 430.346C502.76 430.346 504.469 430.735 505.919 431.537C507.369 432.34 508.508 433.531 509.336 435.162C510.165 436.793 510.579 438.838 510.579 441.298V456.133H507.369V441.634C507.369 438.942 506.747 436.922 505.505 435.524C504.262 434.152 502.501 433.453 500.249 433.453C498.566 433.453 497.09 433.816 495.848 434.541C494.605 435.266 493.647 436.327 492.948 437.699C492.275 439.071 491.938 440.728 491.938 442.67V456.081H488.728V430.554H491.783V437.544L491.291 436.223C492.042 434.385 493.233 432.935 494.89 431.874C496.547 430.812 498.566 430.346 500.844 430.346Z" fill="#FFF9E7"/>
<path d="M520.858 424.962C520.184 424.962 519.641 424.729 519.201 424.237C518.76 423.745 518.527 423.175 518.527 422.476C518.527 421.803 518.76 421.234 519.201 420.742C519.641 420.276 520.21 420.043 520.858 420.043C521.505 420.043 522.074 420.276 522.515 420.716C522.955 421.156 523.188 421.726 523.188 422.425C523.188 423.15 522.981 423.745 522.54 424.211C522.126 424.703 521.557 424.962 520.858 424.962ZM519.252 456.133V430.606H522.463V456.133H519.252Z" fill="#FFF9E7"/>
<path d="M537.453 456.132L526.942 430.605H530.281L539.938 454.294H538.359L548.146 430.605H551.304L540.741 456.132H537.453Z" fill="#FFF9E7"/>
<path d="M565.88 456.366C563.421 456.366 561.246 455.797 559.382 454.684C557.518 453.57 556.068 452.017 555.007 450.075C553.945 448.107 553.427 445.881 553.427 443.344C553.427 440.806 553.919 438.58 554.929 436.638C555.939 434.696 557.311 433.169 559.071 432.056C560.832 430.942 562.799 430.373 565 430.373C567.227 430.373 569.194 430.917 570.929 432.004C572.664 433.091 574.01 434.619 575.02 436.586C576.003 438.554 576.495 440.807 576.495 443.37C576.495 443.525 576.495 443.706 576.469 443.887C576.443 444.069 576.443 444.25 576.443 444.457H555.835V441.868H574.735L573.466 442.878C573.466 441.04 573.104 439.383 572.353 437.933C571.628 436.483 570.618 435.37 569.35 434.541C568.081 433.739 566.631 433.324 564.974 433.324C563.343 433.324 561.893 433.739 560.599 434.541C559.304 435.344 558.295 436.483 557.57 437.933C556.845 439.383 556.482 441.065 556.482 442.929V443.473C556.482 445.415 556.871 447.124 557.673 448.599C558.476 450.075 559.589 451.214 561.013 452.043C562.437 452.871 564.068 453.285 565.906 453.285C567.356 453.285 568.702 453.001 569.945 452.457C571.188 451.913 572.275 451.059 573.181 449.92L574.994 452.146C573.932 453.518 572.612 454.554 571.058 455.253C569.505 455.952 567.77 456.366 565.88 456.366Z" fill="#FFF9E7"/>
<path d="M583.071 456.133V430.606H586.126V437.57L585.816 436.353C586.463 434.412 587.602 432.936 589.155 431.9C590.709 430.891 592.651 430.373 594.981 430.373V433.739C594.851 433.739 594.748 433.739 594.618 433.713C594.489 433.687 594.385 433.687 594.256 433.687C591.77 433.687 589.803 434.515 588.405 436.146C586.981 437.777 586.282 440.107 586.282 443.111V456.133H583.071Z" fill="#FFF9E7"/>
<path d="M607.511 456.366C605.569 456.366 603.705 456.055 601.971 455.46C600.236 454.864 598.864 454.113 597.88 453.207L599.33 450.489C600.288 451.266 601.531 451.939 603.032 452.508C604.534 453.078 606.113 453.363 607.77 453.363C610.023 453.363 611.654 452.974 612.637 452.223C613.621 451.473 614.113 450.437 614.113 449.194C614.113 448.262 613.828 447.511 613.285 446.994C612.741 446.45 611.99 446.062 611.11 445.777C610.23 445.492 609.194 445.259 608.081 445.078C606.968 444.897 605.854 444.664 604.767 444.405C603.679 444.146 602.67 443.757 601.764 443.266C600.857 442.774 600.133 442.075 599.589 441.194C599.019 440.314 598.76 439.149 598.76 437.699C598.76 436.301 599.123 435.058 599.848 433.945C600.573 432.832 601.634 431.977 603.032 431.356C604.43 430.735 606.139 430.398 608.158 430.398C609.686 430.398 611.213 430.605 612.767 431.045C614.294 431.486 615.563 432.055 616.547 432.78L615.149 435.55C614.087 434.774 612.974 434.204 611.757 433.867C610.566 433.531 609.349 433.35 608.158 433.35C606.01 433.35 604.456 433.738 603.446 434.541C602.437 435.343 601.945 436.353 601.945 437.57C601.945 438.554 602.23 439.304 602.773 439.848C603.317 440.392 604.068 440.832 604.974 441.143C605.88 441.453 606.89 441.712 608.003 441.893C609.09 442.075 610.204 442.333 611.291 442.592C612.378 442.877 613.388 443.24 614.32 443.706C615.226 444.172 615.977 444.845 616.521 445.699C617.065 446.554 617.349 447.693 617.349 449.065C617.349 450.566 616.961 451.835 616.21 452.922C615.433 454.01 614.32 454.864 612.87 455.46C611.343 456.055 609.582 456.366 607.511 456.366Z" fill="#FFF9E7"/>
<path d="M624.78 424.962C624.107 424.962 623.563 424.729 623.123 424.237C622.683 423.745 622.45 423.175 622.45 422.476C622.45 421.803 622.683 421.234 623.123 420.742C623.563 420.276 624.133 420.043 624.78 420.043C625.427 420.043 625.997 420.276 626.437 420.716C626.877 421.156 627.11 421.726 627.11 422.425C627.11 423.15 626.903 423.745 626.463 424.211C626.023 424.703 625.453 424.962 624.78 424.962ZM623.149 456.133V430.606H626.359V456.133H623.149Z" fill="#FFF9E7"/>
<path d="M631.589 433.453V430.579H646.243V433.453H631.589ZM642.773 456.365C640.547 456.365 638.838 455.718 637.621 454.423C636.43 453.129 635.809 451.291 635.809 448.935V424.961H639.019V448.728C639.019 450.229 639.382 451.368 640.081 452.171C640.78 452.974 641.79 453.388 643.136 453.388C644.534 453.388 645.725 452.948 646.657 452.067L647.796 454.553C647.175 455.174 646.398 455.614 645.518 455.925C644.612 456.21 643.705 456.365 642.773 456.365Z" fill="#FFF9E7"/>
<path d="M653.776 465.79C652.663 465.79 651.602 465.583 650.592 465.194C649.582 464.806 648.728 464.211 648.003 463.434L649.505 460.845C650.1 461.466 650.747 461.932 651.472 462.269C652.171 462.605 652.974 462.787 653.828 462.787C654.89 462.787 655.796 462.476 656.547 461.829C657.297 461.182 658.048 460.094 658.721 458.489L660.249 454.735L660.611 454.191L670.346 430.502H673.505L661.647 459.085C660.974 460.741 660.249 462.062 659.472 463.02C658.67 464.004 657.815 464.677 656.883 465.091C655.951 465.583 654.916 465.79 653.776 465.79ZM660.094 456.858L649.168 430.606H652.508L662.165 454.036L660.094 456.858Z" fill="#FFF9E7"/>
<path d="M277.518 514.748C275.136 514.748 272.961 514.308 270.942 513.454C268.922 512.599 267.188 511.382 265.712 509.829C264.236 508.276 263.097 506.437 262.269 504.34C261.44 502.243 261.026 499.939 261.026 497.428C261.026 494.916 261.44 492.638 262.269 490.515C263.097 488.418 264.262 486.58 265.738 485.026C267.214 483.473 268.974 482.256 270.994 481.402C273.013 480.548 275.214 480.107 277.57 480.107C279.848 480.107 281.997 480.522 284.016 481.35C286.036 482.179 287.718 483.421 289.117 485.078L286.994 487.357C285.699 485.933 284.275 484.897 282.722 484.276C281.168 483.654 279.486 483.318 277.673 483.318C275.783 483.318 274.023 483.654 272.392 484.353C270.761 485.052 269.363 486.036 268.146 487.331C266.955 488.599 265.997 490.101 265.324 491.81C264.651 493.518 264.314 495.383 264.314 497.428C264.314 499.473 264.651 501.337 265.324 503.046C265.997 504.755 266.929 506.23 268.146 507.525C269.363 508.819 270.761 509.803 272.392 510.502C274.023 511.201 275.783 511.538 277.673 511.538C279.486 511.538 281.168 511.227 282.722 510.554C284.275 509.907 285.725 508.871 286.994 507.447L289.117 509.726C287.718 511.383 286.036 512.625 284.016 513.48C281.997 514.334 279.822 514.748 277.518 514.748Z" fill="#FFF9E7"/>
<path d="M305.22 514.696C302.916 514.696 300.845 514.127 299.032 513.014C297.22 511.9 295.796 510.347 294.734 508.379C293.673 506.412 293.155 504.159 293.155 501.674C293.155 499.111 293.673 496.858 294.734 494.916C295.796 492.975 297.22 491.447 299.032 490.334C300.845 489.247 302.89 488.677 305.22 488.677C307.576 488.677 309.647 489.247 311.459 490.36C313.272 491.473 314.696 493.001 315.731 494.916C316.767 496.858 317.285 499.085 317.285 501.648C317.285 504.185 316.767 506.412 315.731 508.379C314.696 510.347 313.246 511.874 311.433 512.988C309.595 514.153 307.524 514.696 305.22 514.696ZM305.22 511.641C306.929 511.641 308.456 511.227 309.777 510.399C311.097 509.57 312.133 508.405 312.909 506.903C313.686 505.402 314.048 503.667 314.048 501.674C314.048 499.654 313.66 497.92 312.909 496.418C312.133 494.916 311.097 493.777 309.777 492.949C308.456 492.12 306.955 491.706 305.272 491.706C303.589 491.706 302.087 492.12 300.767 492.949C299.446 493.777 298.385 494.942 297.608 496.418C296.832 497.92 296.443 499.654 296.443 501.674C296.443 503.641 296.832 505.402 297.608 506.903C298.385 508.405 299.446 509.57 300.741 510.399C302.035 511.227 303.511 511.641 305.22 511.641Z" fill="#FFF9E7"/>
<path d="M353.427 488.703C355.343 488.703 357.026 489.091 358.45 489.894C359.874 490.696 360.987 491.887 361.79 493.518C362.592 495.149 362.981 497.195 362.981 499.654V514.489H359.77V499.991C359.77 497.298 359.175 495.253 357.984 493.881C356.793 492.508 355.11 491.809 352.961 491.809C351.33 491.809 349.932 492.172 348.741 492.897C347.55 493.622 346.644 494.683 345.997 496.055C345.35 497.428 345.039 499.085 345.039 501.026V514.437H341.829V499.939C341.829 497.246 341.233 495.201 340.016 493.829C338.825 492.457 337.117 491.758 334.968 491.758C333.363 491.758 331.964 492.12 330.773 492.845C329.583 493.57 328.651 494.631 328.003 496.004C327.356 497.376 327.045 499.033 327.045 500.975V514.386H323.835V488.858H326.89V495.771L326.398 494.554C327.123 492.716 328.288 491.266 329.893 490.204C331.498 489.143 333.414 488.625 335.589 488.625C337.893 488.625 339.861 489.246 341.492 490.489C343.123 491.732 344.159 493.622 344.651 496.107L343.382 495.564C344.081 493.492 345.298 491.81 347.058 490.541C348.845 489.324 350.942 488.703 353.427 488.703Z" fill="#FFF9E7"/>
<path d="M371.679 523.887V488.936H374.734V496.625L374.424 501.726L374.864 506.878V523.887H371.679ZM383.9 514.696C381.854 514.696 380.016 514.179 378.359 513.169C376.702 512.159 375.382 510.684 374.424 508.742C373.44 506.8 372.948 504.444 372.948 501.674C372.948 498.878 373.44 496.522 374.398 494.606C375.356 492.664 376.676 491.214 378.333 490.205C379.99 489.195 381.854 488.703 383.925 488.703C386.178 488.703 388.197 489.247 389.984 490.334C391.77 491.421 393.168 492.949 394.204 494.891C395.213 496.858 395.731 499.111 395.731 501.674C395.731 504.263 395.213 506.541 394.204 508.483C393.168 510.425 391.77 511.952 389.984 513.04C388.171 514.153 386.152 514.696 383.9 514.696ZM383.667 511.641C385.349 511.641 386.851 511.227 388.171 510.399C389.492 509.57 390.553 508.405 391.33 506.904C392.107 505.402 392.495 503.667 392.495 501.674C392.495 499.68 392.107 497.971 391.33 496.47C390.553 494.968 389.492 493.803 388.171 492.975C386.851 492.12 385.349 491.706 383.667 491.706C381.984 491.706 380.482 492.12 379.136 492.975C377.789 493.829 376.754 494.994 375.977 496.47C375.2 497.971 374.838 499.706 374.838 501.674C374.838 503.641 375.226 505.402 375.977 506.904C376.728 508.405 377.789 509.57 379.136 510.399C380.482 511.227 381.984 511.641 383.667 511.641Z" fill="#FFF9E7"/>
<path d="M412.042 514.697C410.022 514.697 408.262 514.282 406.76 513.48C405.259 512.677 404.094 511.46 403.265 509.829C402.437 508.198 402.022 506.179 402.022 503.745V488.91H405.233V503.383C405.233 506.101 405.854 508.146 407.097 509.544C408.34 510.917 410.1 511.616 412.353 511.616C414.009 511.616 415.433 511.253 416.65 510.528C417.867 509.803 418.799 508.742 419.446 507.344C420.094 505.946 420.43 504.289 420.43 502.347V488.988H423.641V514.515H420.586V507.525L421.077 508.794C420.327 510.684 419.162 512.133 417.582 513.195C416.003 514.179 414.139 514.697 412.042 514.697Z" fill="#FFF9E7"/>
<path d="M428.87 491.809V488.935H443.524V491.809H428.87ZM440.055 514.696C437.828 514.696 436.119 514.048 434.902 512.754C433.712 511.459 433.09 509.621 433.09 507.265V483.291H436.301V507.058C436.301 508.56 436.663 509.699 437.362 510.501C438.061 511.304 439.071 511.718 440.417 511.718C441.841 511.718 443.006 511.278 443.938 510.398L445.077 512.883C444.456 513.505 443.679 513.945 442.799 514.255C441.919 514.566 440.987 514.696 440.055 514.696Z" fill="#FFF9E7"/>
<path d="M460.923 514.696C458.463 514.696 456.288 514.127 454.424 513.014C452.56 511.9 451.11 510.347 450.049 508.405C448.987 506.438 448.469 504.211 448.469 501.674C448.469 499.137 448.961 496.91 449.971 494.968C450.981 493.027 452.353 491.499 454.113 490.386C455.874 489.273 457.842 488.703 460.042 488.703C462.269 488.703 464.236 489.247 465.971 490.334C467.706 491.421 469.052 492.949 470.062 494.891C471.046 496.858 471.563 499.111 471.563 501.674C471.563 501.829 471.563 502.01 471.537 502.192C471.512 502.373 471.512 502.554 471.512 502.761H450.903V500.172H469.803L468.534 501.182C468.534 499.344 468.172 497.687 467.421 496.237C466.67 494.787 465.686 493.674 464.418 492.845C463.149 492.043 461.699 491.628 460.042 491.628C458.411 491.628 456.961 492.043 455.667 492.845C454.372 493.648 453.363 494.787 452.638 496.237C451.913 497.687 451.55 499.37 451.55 501.234V501.777C451.55 503.719 451.939 505.428 452.741 506.904C453.544 508.379 454.657 509.518 456.081 510.347C457.505 511.175 459.136 511.59 460.974 511.59C462.424 511.59 463.77 511.305 465.013 510.761C466.256 510.217 467.343 509.363 468.249 508.224L470.062 510.451C469 511.823 467.706 512.858 466.126 513.557C464.573 514.36 462.838 514.696 460.923 514.696Z" fill="#FFF9E7"/>
<path d="M478.113 514.463V488.936H481.168V495.874L480.857 494.658C481.531 492.716 482.644 491.24 484.197 490.205C485.751 489.169 487.692 488.677 490.023 488.677V492.043C489.893 492.043 489.79 492.043 489.66 492.017C489.531 491.991 489.427 491.991 489.298 491.991C486.812 491.991 484.845 492.819 483.446 494.45C482.023 496.081 481.324 498.412 481.324 501.441V514.463H478.113Z" fill="#FFF9E7"/>
<path d="M517.388 514.748C515.032 514.748 512.806 514.333 510.657 513.505C508.508 512.677 506.851 511.615 505.686 510.32L507.006 507.55C508.12 508.715 509.621 509.699 511.485 510.502C513.375 511.304 515.343 511.693 517.414 511.693C519.408 511.693 521.013 511.434 522.256 510.89C523.498 510.346 524.43 509.621 525 508.715C525.57 507.809 525.88 506.799 525.88 505.712C525.88 504.392 525.518 503.304 524.819 502.502C524.12 501.699 523.188 501.052 522.049 500.586C520.909 500.12 519.641 499.706 518.269 499.343C516.896 498.981 515.498 498.592 514.126 498.204C512.754 497.816 511.46 497.246 510.32 496.573C509.155 495.9 508.223 494.994 507.524 493.88C506.825 492.767 506.463 491.291 506.463 489.479C506.463 487.796 506.877 486.243 507.706 484.845C508.534 483.447 509.803 482.308 511.511 481.453C513.22 480.599 515.421 480.159 518.087 480.159C519.848 480.159 521.608 480.418 523.369 480.961C525.104 481.505 526.605 482.23 527.874 483.162L526.735 486.036C525.388 485.052 523.939 484.353 522.437 483.887C520.909 483.421 519.46 483.214 518.036 483.214C516.146 483.214 514.566 483.498 513.35 484.042C512.107 484.586 511.201 485.337 510.631 486.243C510.036 487.175 509.751 488.21 509.751 489.376C509.751 490.696 510.113 491.783 510.812 492.586C511.511 493.388 512.443 494.036 513.608 494.476C514.774 494.916 516.042 495.33 517.414 495.693C518.786 496.055 520.185 496.444 521.531 496.858C522.877 497.272 524.172 497.816 525.311 498.489C526.476 499.162 527.408 500.042 528.107 501.13C528.806 502.243 529.168 503.667 529.168 505.453C529.168 507.11 528.754 508.638 527.9 510.036C527.045 511.434 525.777 512.573 524.042 513.427C522.308 514.282 520.107 514.748 517.388 514.748Z" fill="#FFF9E7"/>
<path d="M545.401 514.696C543.097 514.696 541.026 514.127 539.213 513.014C537.401 511.9 535.977 510.347 534.942 508.379C533.88 506.412 533.362 504.159 533.362 501.674C533.362 499.111 533.88 496.858 534.942 494.916C536.003 492.975 537.427 491.447 539.213 490.334C541.026 489.247 543.071 488.677 545.401 488.677C547.757 488.677 549.828 489.247 551.641 490.36C553.453 491.473 554.877 493.001 555.912 494.916C556.948 496.858 557.466 499.085 557.466 501.648C557.466 504.185 556.948 506.412 555.912 508.379C554.877 510.347 553.427 511.874 551.615 512.988C549.776 514.153 547.705 514.696 545.401 514.696ZM545.401 511.641C547.11 511.641 548.637 511.227 549.958 510.399C551.278 509.57 552.314 508.405 553.09 506.903C553.867 505.402 554.23 503.667 554.23 501.674C554.23 499.654 553.841 497.92 553.09 496.418C552.314 494.916 551.278 493.777 549.958 492.949C548.637 492.12 547.136 491.706 545.453 491.706C543.77 491.706 542.268 492.12 540.948 492.949C539.628 493.777 538.566 494.942 537.789 496.418C537.013 497.92 536.624 499.654 536.624 501.674C536.624 503.641 537.013 505.402 537.789 506.903C538.566 508.405 539.628 509.57 540.922 510.399C542.217 511.227 543.718 511.641 545.401 511.641Z" fill="#FFF9E7"/>
<path d="M573.854 514.696C571.498 514.696 569.401 514.127 567.563 513.014C565.725 511.9 564.275 510.347 563.214 508.405C562.152 506.438 561.634 504.211 561.634 501.674C561.634 499.111 562.152 496.858 563.214 494.916C564.275 492.975 565.725 491.447 567.563 490.334C569.401 489.247 571.498 488.677 573.854 488.677C575.874 488.677 577.686 489.091 579.317 489.946C580.948 490.8 582.217 492.043 583.149 493.725L580.767 495.486C579.964 494.192 578.955 493.234 577.738 492.612C576.547 491.991 575.226 491.68 573.828 491.68C572.146 491.68 570.618 492.094 569.272 492.923C567.926 493.751 566.864 494.916 566.061 496.392C565.285 497.894 564.896 499.628 564.896 501.648C564.896 503.667 565.285 505.402 566.061 506.903C566.838 508.405 567.9 509.544 569.272 510.373C570.644 511.201 572.146 511.615 573.828 511.615C575.226 511.615 576.547 511.305 577.738 510.683C578.929 510.062 579.939 509.13 580.767 507.861L583.149 509.622C582.217 511.279 580.948 512.522 579.317 513.402C577.686 514.282 575.874 514.696 573.854 514.696Z" fill="#FFF9E7"/>
<path d="M591.045 483.292C590.372 483.292 589.828 483.059 589.388 482.567C588.948 482.075 588.715 481.506 588.715 480.807C588.715 480.108 588.948 479.564 589.388 479.072C589.828 478.58 590.398 478.373 591.045 478.373C591.692 478.373 592.262 478.606 592.702 479.046C593.142 479.512 593.375 480.056 593.375 480.755C593.375 481.48 593.168 482.075 592.728 482.541C592.288 483.059 591.718 483.292 591.045 483.292ZM589.414 514.464V488.936H592.624V514.464H589.414Z" fill="#FFF9E7"/>
<path d="M611.602 514.696C609.143 514.696 606.968 514.127 605.104 513.014C603.24 511.9 601.79 510.347 600.728 508.405C599.667 506.438 599.149 504.211 599.149 501.674C599.149 499.137 599.641 496.91 600.651 494.968C601.661 493.027 603.033 491.499 604.793 490.386C606.554 489.273 608.521 488.703 610.722 488.703C612.949 488.703 614.916 489.247 616.651 490.334C618.385 491.421 619.732 492.949 620.741 494.891C621.725 496.858 622.217 499.111 622.217 501.674C622.217 501.829 622.217 502.01 622.191 502.192C622.165 502.373 622.165 502.554 622.165 502.761H601.557V500.172H620.457L619.188 501.182C619.188 499.344 618.826 497.687 618.075 496.237C617.35 494.787 616.34 493.674 615.072 492.845C613.803 492.043 612.353 491.628 610.696 491.628C609.065 491.628 607.615 492.043 606.321 492.845C605.026 493.648 604.016 494.787 603.292 496.237C602.567 497.687 602.204 499.37 602.204 501.234V501.777C602.204 503.719 602.593 505.428 603.395 506.904C604.198 508.379 605.311 509.518 606.735 510.347C608.159 511.175 609.79 511.59 611.628 511.59C613.078 511.59 614.424 511.305 615.667 510.761C616.91 510.217 617.997 509.363 618.903 508.224L620.716 510.451C619.654 511.823 618.334 512.858 616.78 513.557C615.227 514.256 613.492 514.696 611.602 514.696Z" fill="#FFF9E7"/>
<path d="M625.091 491.809V488.935H639.745V491.809H625.091ZM636.275 514.696C634.049 514.696 632.34 514.048 631.123 512.754C629.932 511.459 629.311 509.621 629.311 507.265V483.291H632.521V507.058C632.521 508.56 632.884 509.699 633.583 510.501C634.282 511.304 635.291 511.718 636.638 511.718C638.036 511.718 639.227 511.278 640.159 510.398L641.298 512.883C640.677 513.505 639.9 513.945 639.02 514.255C638.139 514.566 637.207 514.696 636.275 514.696Z" fill="#FFF9E7"/>
<path d="M647.278 524.146C646.165 524.146 645.103 523.939 644.094 523.551C643.084 523.163 642.23 522.567 641.505 521.79L643.006 519.201C643.602 519.823 644.249 520.289 644.974 520.625C645.673 520.962 646.476 521.143 647.33 521.143C648.391 521.143 649.298 520.832 650.048 520.185C650.799 519.538 651.55 518.451 652.223 516.845L653.751 513.091L654.113 512.548L663.848 488.884H667.006L655.149 517.467C654.476 519.124 653.751 520.444 652.974 521.402C652.171 522.386 651.317 523.059 650.385 523.473C649.453 523.939 648.417 524.146 647.278 524.146ZM653.595 515.188L642.67 488.936H646.01L655.667 512.367L653.595 515.188Z" fill="#FFF9E7"/>
<path d="M124.611 384.339L161.712 300.844H180.793L218.255 384.339H197.983L167.33 310.605H175.097L144.443 384.339H124.611ZM143.33 366.449L148.223 351.77H191.407L196.404 366.449H143.33Z" fill="#FFF9E7"/>
<path d="M226.955 384.339V300.844H246.398V368.598H288.029V384.339H226.955Z" fill="#FFF9E7"/>
<path d="M339.11 385.765C332.664 385.765 326.683 384.703 321.168 382.606C315.628 380.509 310.838 377.506 306.8 373.596C302.735 369.713 299.576 365.13 297.324 359.875C295.046 354.619 293.932 348.872 293.932 342.58C293.932 336.289 295.071 330.541 297.324 325.286C299.602 320.03 302.761 315.473 306.877 311.564C310.968 307.681 315.783 304.677 321.324 302.554C326.838 300.457 332.845 299.396 339.266 299.396C346.489 299.396 353.065 300.639 358.942 303.15C364.819 305.661 369.764 309.338 373.725 314.179L361.194 325.622C358.398 322.36 355.24 319.901 351.719 318.218C348.172 316.535 344.34 315.706 340.198 315.706C336.288 315.706 332.715 316.354 329.453 317.674C326.191 318.994 323.369 320.833 320.987 323.215C318.605 325.596 316.741 328.418 315.447 331.681C314.126 334.943 313.479 338.567 313.479 342.528C313.479 346.515 314.126 350.114 315.447 353.376C316.767 356.638 318.605 359.46 320.987 361.842C323.369 364.224 326.191 366.088 329.453 367.383C332.715 368.677 336.288 369.35 340.198 369.35C344.34 369.35 348.172 368.496 351.719 366.787C355.266 365.079 358.424 362.593 361.194 359.331L373.725 370.774C369.738 375.616 364.819 379.318 358.942 381.881C353.013 384.496 346.411 385.765 339.11 385.765Z" fill="#FFF9E7"/>
<path d="M487.744 384.339V300.844H503.718L539.265 359.77H530.799L565.621 300.844H581.725V384.339H563.705L563.472 328.624H567.045L538.903 375.381H530.307L501.802 328.624H505.737V384.339H487.744Z" fill="#FFF9E7"/>
<path d="M629.077 385.764C622.398 385.764 615.977 384.858 609.815 383.071C603.653 381.285 598.708 378.955 594.954 376.081L601.504 361.531C605 364.068 609.22 366.165 614.139 367.796C619.058 369.427 624.055 370.23 629.051 370.23C632.857 370.23 635.964 369.841 638.294 369.039C640.65 368.236 642.359 367.201 643.472 365.88C644.585 364.56 645.155 363.032 645.155 361.298C645.155 359.071 644.275 357.311 642.54 355.99C640.779 354.67 638.475 353.608 635.55 352.78C632.65 351.951 629.491 351.149 626.074 350.398C622.657 349.647 619.213 348.715 615.744 347.654C612.275 346.592 609.116 345.142 606.19 343.356C603.291 341.57 600.987 339.214 599.278 336.314C597.569 333.414 596.715 329.764 596.715 325.388C596.715 320.625 597.983 316.275 600.521 312.314C603.058 308.379 606.941 305.246 612.145 302.89C617.349 300.534 623.899 299.369 631.77 299.369C637.025 299.369 642.203 300.016 647.33 301.285C652.456 302.553 656.935 304.392 660.741 306.773L654.656 321.324C650.928 319.175 647.071 317.57 643.084 316.482C639.097 315.395 635.291 314.877 631.64 314.877C627.835 314.877 624.754 315.291 622.449 316.12C620.145 316.948 618.462 318.087 617.375 319.511C616.288 320.935 615.77 322.54 615.77 324.275C615.77 326.502 616.65 328.288 618.385 329.634C620.145 330.981 622.449 332.042 625.297 332.793C628.171 333.544 631.33 334.294 634.851 335.071C638.372 335.848 641.815 336.754 645.233 337.867C648.65 338.981 651.783 340.404 654.656 342.113C657.53 343.822 659.835 346.126 661.647 349.026C663.433 351.926 664.339 355.524 664.339 359.822C664.339 364.508 663.045 368.806 660.456 372.715C657.867 376.625 653.957 379.757 648.702 382.139C643.524 384.573 636.974 385.764 629.077 385.764Z" fill="#FFF9E7"/>
<path d="M469.284 326.579C468.559 313.246 450.411 301.906 429.543 301.906C408.676 301.906 390.527 313.194 389.802 326.579C389.155 339.136 389.155 345.298 389.802 357.803C390.527 371.136 408.676 382.476 429.543 382.476C450.411 382.476 468.559 371.188 469.284 357.803C470.009 345.194 470.009 339.084 469.284 326.579ZM466.022 357.725C465.375 369.971 448.754 380.249 429.647 380.249C410.54 380.249 393.893 369.945 393.271 357.725C392.624 345.531 392.624 339.162 393.271 326.657C393.919 314.152 410.54 304.133 429.647 304.133C448.754 304.133 465.401 314.437 466.022 326.657C466.669 338.851 466.669 345.194 466.022 357.725ZM431.304 321.816V337.453C431.459 338.075 430.838 338.644 429.957 338.748C429.077 338.851 428.119 338.437 427.964 337.867C427.886 337.764 427.886 337.557 427.964 337.453V321.816C427.809 321.194 428.43 320.625 429.31 320.521C430.19 320.418 431.148 320.832 431.304 321.401C431.381 321.505 431.381 321.66 431.304 321.816Z" fill="#FFF9E7" stroke="#FFF9E7" stroke-width="2" stroke-miterlimit="10"/>
<path d="M243.421 414.372V524.145" stroke="#FFF9E7" stroke-miterlimit="10"/>
<path d="M129.179 415.424C127.623 416.211 126.411 417.64 125.963 419.173C125.751 419.96 125.686 425.412 125.686 448.268C125.686 474.808 125.707 476.446 126.069 477.49C126.579 478.96 127.879 480.387 129.37 481.112L130.584 481.707L147.027 481.772L163.47 481.837L163.364 483.584C163.172 486.694 162.854 489.974 162.618 491.551L162.362 493.107H158.592C154.929 493.107 154.823 493.127 154.375 493.596C153.735 494.277 153.756 495.32 154.439 495.98L154.949 496.514H174.354H193.759L194.269 495.98C194.97 495.299 194.993 494.212 194.31 493.573C193.841 493.125 193.629 493.104 190.072 493.104H186.344L186.087 491.548C185.854 489.971 185.533 486.691 185.342 483.582L185.235 481.834L201.678 481.769L218.121 481.705L219.335 481.109C220.826 480.384 222.126 478.958 222.636 477.487C222.999 476.444 223.019 474.802 223.019 448.265C223.019 425.412 222.955 419.96 222.742 419.17C222.294 417.637 221.08 416.208 219.527 415.421L218.186 414.72H174.351H130.517L129.179 415.424ZM218.017 418.448C218.421 418.704 218.934 419.214 219.188 419.618C219.615 420.364 219.615 420.661 219.677 443.196L219.718 466.049H217.694H215.669L215.628 453.909C215.563 440.449 215.648 441.236 214.136 440.98C213.497 440.894 213.264 440.959 212.816 441.407L212.262 441.961V454.015V466.049H174.349H136.443L136.485 445.645L136.549 425.262H174.357H212.164L212.27 430.758L212.376 436.275L212.909 436.703C213.505 437.192 214.678 437.107 215.232 436.553C215.742 436.042 215.85 425.456 215.358 424.156C214.955 423.092 214.059 422.282 212.951 421.964C212.417 421.837 199.703 421.751 174.25 421.751C133.953 421.772 135.4 421.73 134.271 422.753C134.036 422.965 133.652 423.519 133.44 423.988C133.057 424.798 133.036 425.904 133.036 445.435V466.054H131.012H128.987L129.028 443.201C129.093 421.816 129.114 420.325 129.476 419.688C129.903 418.877 130.626 418.367 131.607 418.132C131.969 418.026 151.415 417.982 174.781 417.982C217.103 418.023 217.272 418.023 218.017 418.448ZM219.68 472.697C219.594 476.511 219.382 477.127 217.805 477.938L216.868 478.406H174.354H131.84L130.903 477.917C129.326 477.13 129.114 476.511 129.028 472.697L128.943 469.461H174.354H219.765L219.68 472.697ZM181.896 483.134C181.96 483.879 182.067 485.391 182.131 486.499C182.258 488.524 182.579 491.398 182.791 492.506L182.918 493.101H174.357H165.795L165.922 492.506C166.134 491.398 166.455 488.524 166.582 486.499C166.647 485.391 166.753 483.879 166.817 483.134L166.944 481.813H174.357H181.769L181.896 483.134Z" fill="#FFF9E7"/>
<path d="M164.516 435.105C163.729 435.956 149.031 453.145 148.2 454.209C147.581 455.019 147.605 455.933 148.265 456.573C148.754 457.083 149.479 457.233 150.16 456.976C150.502 456.85 167.03 437.595 167.475 436.785C167.879 436.083 167.794 435.4 167.219 434.846C166.432 434.038 165.453 434.123 164.516 435.105Z" fill="#FFF9E7"/>
<path d="M153.14 438.639C152.736 438.872 149.88 441.96 148.306 443.858C147.581 444.754 147.561 445.668 148.265 446.351C148.967 447.076 149.883 447.053 150.693 446.287C152.034 445.031 155.421 441.046 155.527 440.578C155.739 439.767 155.442 439.045 154.761 438.683C154.015 438.3 153.738 438.3 153.14 438.639Z" fill="#FFF9E7"/>
<path d="M169.989 472.762C169.243 473.486 169.264 474.595 170.009 475.19C170.543 475.594 170.861 475.638 174.354 475.638C177.846 475.638 178.167 475.597 178.698 475.19C179.444 474.595 179.464 473.486 178.719 472.762C178.209 472.228 178.165 472.228 174.354 472.228C170.543 472.228 170.499 472.228 169.989 472.762Z" fill="#FFF9E7"/>
<path d="M136.272 501.984C135.889 502.175 135.4 502.579 135.185 502.88C134.652 503.646 129.627 519.643 129.627 520.581C129.627 521.603 130.222 522.711 131.097 523.286L131.822 523.775H174.357H216.891L217.616 523.286C218.489 522.711 219.087 521.603 219.087 520.539C219.087 519.667 214.209 504.096 213.614 503.074C213.401 502.711 212.889 502.243 212.485 502.03C211.783 501.647 210.654 501.627 183.794 501.627H155.848L155.421 502.181C154.825 502.926 154.867 503.607 155.485 504.332L155.995 504.927L183.408 505.034L210.82 505.14L213.249 512.785C214.59 517.003 215.677 520.474 215.677 520.516C215.677 520.537 197.083 520.581 174.357 520.581C151.63 520.581 133.036 520.539 133.036 520.516C133.036 520.474 134.124 517.003 135.465 512.785L137.893 505.14L144.07 505.034C149.759 504.927 150.289 504.883 150.696 504.524C151.291 503.97 151.315 502.649 150.716 502.054C150.313 501.65 150.015 501.627 143.646 501.627C137.932 501.621 136.868 501.686 136.272 501.984Z" fill="#FFF9E7"/>
<path d="M146.049 508.778C145.43 509.565 145.495 510.269 146.24 511.035C146.88 511.654 146.942 511.675 148.563 511.61C150.608 511.504 151.139 511.141 151.139 509.886C151.139 508.521 150.649 508.223 148.392 508.223C146.582 508.223 146.453 508.247 146.049 508.778Z" fill="#FFF9E7"/>
<path d="M154.802 508.716C154.333 509.205 154.206 509.995 154.46 510.676C154.97 511.955 159.231 511.955 159.742 510.676C160.019 509.951 159.868 509.143 159.379 508.695C158.952 508.291 158.633 508.226 157.077 508.226C155.462 508.224 155.206 508.268 154.802 508.716Z" fill="#FFF9E7"/>
<path d="M163.493 508.651C162.939 509.205 162.939 510.354 163.473 511.014C163.814 511.418 164.112 511.524 165.388 511.589C167.136 511.695 168.009 511.418 168.371 510.652C168.713 509.886 168.669 509.417 168.159 508.777C167.755 508.244 167.625 508.223 165.816 508.223C164.195 508.223 163.853 508.288 163.493 508.651Z" fill="#FFF9E7"/>
<path d="M172.202 508.63C171.542 509.163 171.522 510.398 172.182 511.058C172.609 511.462 172.883 511.527 174.46 511.527C176.037 511.527 176.314 511.462 176.738 511.058C177.378 510.419 177.357 509.143 176.697 508.609C175.995 508.055 172.907 508.055 172.202 508.63Z" fill="#FFF9E7"/>
<path d="M180.767 508.777C180.257 509.417 180.213 509.886 180.555 510.652C180.917 511.418 181.79 511.695 183.537 511.589C185.285 511.504 185.86 511.056 185.86 509.8C185.86 508.544 185.306 508.223 183.113 508.223C181.298 508.223 181.171 508.247 180.767 508.777Z" fill="#FFF9E7"/>
<path d="M189.52 508.715C188.946 509.334 188.925 510.354 189.456 511.017C189.774 511.421 190.095 511.527 191.245 511.591C192.032 511.633 192.907 511.612 193.205 511.55C194.525 511.208 194.994 509.846 194.142 508.782C193.738 508.249 193.608 508.228 191.84 508.228C190.16 508.223 189.924 508.267 189.52 508.715Z" fill="#FFF9E7"/>
<path d="M197.997 508.651C197.401 509.246 197.422 510.567 198.018 511.121C198.359 511.419 198.869 511.548 200.148 511.61C201.767 511.675 201.831 511.652 202.471 511.035C203.216 510.269 203.281 509.565 202.662 508.778C202.258 508.244 202.129 508.224 200.319 508.224C198.701 508.224 198.359 508.288 197.997 508.651Z" fill="#FFF9E7"/>
<path d="M146.049 514.53C145.792 514.848 145.601 515.317 145.601 515.573C145.601 515.829 145.792 516.298 146.049 516.616C146.453 517.15 146.582 517.17 148.392 517.17C150.608 517.17 151.139 516.852 151.139 515.573C151.139 514.294 150.605 513.976 148.392 513.976C146.582 513.976 146.453 513.996 146.049 514.53Z" fill="#FFF9E7"/>
<path d="M154.761 514.444C154.207 515.04 154.207 516.192 154.761 516.743C155.123 517.106 155.462 517.17 157.104 517.17C159.341 517.17 159.871 516.873 159.871 515.573C159.871 514.294 159.338 513.976 157.104 513.976C155.421 513.976 155.144 514.038 154.761 514.444Z" fill="#FFF9E7"/>
<path d="M163.493 514.402C163.237 514.658 163.066 515.103 163.066 515.572C163.066 516.851 163.599 517.169 165.813 517.169C167.623 517.169 167.752 517.148 168.156 516.615C168.412 516.297 168.604 515.828 168.604 515.572C168.604 515.315 168.412 514.847 168.156 514.528C167.752 513.995 167.623 513.974 165.813 513.974C164.195 513.977 163.853 514.039 163.493 514.402Z" fill="#FFF9E7"/>
<path d="M172.12 514.402C171.884 514.658 171.716 515.168 171.716 515.572C171.716 516.871 172.226 517.169 174.463 517.169C176.72 517.169 177.168 516.913 177.168 515.572C177.168 514.231 176.72 513.974 174.463 513.974C172.757 513.977 172.459 514.039 172.12 514.402Z" fill="#FFF9E7"/>
<path d="M180.767 514.53C180.511 514.848 180.319 515.317 180.319 515.573C180.319 515.829 180.511 516.298 180.767 516.616C181.171 517.15 181.301 517.17 183.11 517.17C185.326 517.17 185.857 516.852 185.857 515.573C185.857 514.294 185.324 513.976 183.11 513.976C181.298 513.976 181.171 513.996 180.767 514.53Z" fill="#FFF9E7"/>
<path d="M189.476 514.402C189.22 514.658 189.049 515.103 189.049 515.572C189.049 516.851 189.582 517.169 191.819 517.169C193.502 517.169 193.779 517.104 194.162 516.701C194.395 516.444 194.589 515.955 194.589 515.572C194.589 515.189 194.398 514.699 194.162 514.443C193.779 514.039 193.502 513.974 191.819 513.974C190.18 513.977 189.839 514.039 189.476 514.402Z" fill="#FFF9E7"/>
<path d="M197.997 514.402C197.74 514.658 197.57 515.103 197.57 515.572C197.57 516.851 198.103 517.169 200.316 517.169C202.126 517.169 202.256 517.148 202.66 516.615C202.916 516.297 203.107 515.828 203.107 515.572C203.107 515.315 202.916 514.847 202.66 514.528C202.256 513.995 202.126 513.974 200.316 513.974C198.701 513.977 198.359 514.039 197.997 514.402Z" fill="#FFF9E7"/>
<path d="M405 805C625.914 805 805 625.914 805 405C805 184.086 625.914 5 405 5C184.086 5 5 184.086 5 405C5 625.914 184.086 805 405 805Z" stroke="#FFF8E9" stroke-width="4" stroke-miterlimit="10"/>
</g>
<defs>
<clipPath id="clip0_601_12">
<rect width="810" height="810" fill="white"/>
</clipPath>
</defs>
</svg>
