<svg width="800" height="800" viewBox="0 0 800 800" fill="none" xmlns="http://www.w3.org/2000/svg">
<g clip-path="url(#clip0_613_11)">
<rect width="800" height="800" fill="#211F52"/>
<path d="M247.04 448.67L262.76 411.62H266.33L282.05 448.67H278.21L263.78 413.9H265.25L250.82 448.67H247.04ZM253.22 438.77L254.3 435.59H274.28L275.36 438.77H253.22Z" fill="#FFF9E7"/>
<path d="M287 448.67V409.4H290.48V448.67H287Z" fill="#FFF9E7"/>
<path d="M310.58 447.62C308.12 447.62 305.93 447.05 303.95 445.91C302 444.77 300.44 443.15 299.3 441.11C298.16 439.07 297.62 436.73 297.62 434.06C297.62 431.39 298.19 429.08 299.3 427.04C300.44 425 301.97 423.44 303.95 422.3C305.9 421.16 308.12 420.62 310.58 420.62C312.86 420.62 314.93 421.13 316.76 422.15C318.59 423.17 320.06 424.7 321.14 426.71C322.22 428.72 322.76 431.18 322.76 434.06C322.76 436.94 322.22 439.4 321.14 441.41C320.06 443.42 318.59 444.95 316.76 446.03C314.93 447.08 312.86 447.62 310.58 447.62ZM311.21 459.2C308.84 459.2 306.59 458.84 304.43 458.09C302.27 457.34 300.53 456.29 299.18 454.91L300.95 452.06C302.15 453.23 303.65 454.16 305.45 454.85C307.22 455.54 309.11 455.87 311.12 455.87C314.39 455.87 316.79 455.06 318.35 453.41C319.88 451.76 320.66 449.21 320.66 445.76V438.83L321.14 434.06L320.81 429.29V420.89H324.14V445.28C324.14 450.08 323.06 453.59 320.87 455.84C318.68 458.09 315.47 459.2 311.21 459.2ZM310.91 444.29C312.8 444.29 314.48 443.87 315.98 443C317.45 442.13 318.62 440.93 319.46 439.4C320.3 437.87 320.75 436.1 320.75 434.09C320.75 432.08 320.33 430.31 319.46 428.81C318.62 427.31 317.45 426.11 315.98 425.24C314.51 424.37 312.83 423.95 310.91 423.95C309.05 423.95 307.37 424.37 305.87 425.24C304.37 426.11 303.23 427.31 302.39 428.81C301.55 430.34 301.13 432.08 301.13 434.09C301.13 436.1 301.55 437.87 302.39 439.4C303.23 440.93 304.4 442.13 305.87 443C307.34 443.87 309.05 444.29 310.91 444.29Z" fill="#FFF9E7"/>
<path d="M344.36 448.94C341.84 448.94 339.59 448.34 337.64 447.11C335.69 445.88 334.13 444.2 332.99 442.07C331.85 439.91 331.28 437.48 331.28 434.78C331.28 431.99 331.85 429.53 332.99 427.43C334.13 425.3 335.69 423.65 337.64 422.45C339.59 421.25 341.84 420.65 344.36 420.65C346.91 420.65 349.19 421.25 351.17 422.48C353.15 423.71 354.71 425.36 355.82 427.46C356.96 429.56 357.5 431.99 357.5 434.78C357.5 437.54 356.93 439.97 355.82 442.1C354.68 444.23 353.12 445.91 351.14 447.14C349.13 448.31 346.88 448.94 344.36 448.94ZM344.36 445.61C346.22 445.61 347.87 445.16 349.31 444.26C350.75 443.36 351.89 442.1 352.73 440.45C353.57 438.8 353.99 436.91 353.99 434.75C353.99 432.56 353.57 430.67 352.73 429.02C351.89 427.37 350.75 426.14 349.31 425.24C347.87 424.34 346.22 423.89 344.39 423.89C342.56 423.89 340.91 424.34 339.47 425.24C338.03 426.14 336.89 427.4 336.02 429.02C335.15 430.64 334.73 432.56 334.73 434.75C334.73 436.91 335.15 438.8 336.02 440.45C336.89 442.1 338 443.36 339.44 444.26C340.88 445.16 342.53 445.61 344.36 445.61Z" fill="#FFF9E7"/>
<path d="M396.83 420.62C398.93 420.62 400.76 421.04 402.29 421.91C403.85 422.78 405.05 424.1 405.92 425.84C406.79 427.58 407.21 429.83 407.21 432.5V448.64H403.73V432.86C403.73 429.92 403.07 427.73 401.78 426.23C400.49 424.73 398.66 423.98 396.32 423.98C394.55 423.98 393.02 424.37 391.73 425.18C390.44 425.96 389.45 427.13 388.73 428.63C388.04 430.13 387.68 431.93 387.68 434.06V448.67H384.2V432.89C384.2 429.95 383.54 427.76 382.25 426.26C380.93 424.76 379.1 424.01 376.76 424.01C375.02 424.01 373.49 424.4 372.2 425.21C370.88 425.99 369.89 427.16 369.17 428.66C368.48 430.16 368.12 431.96 368.12 434.09V448.7H364.64V420.92H367.97V428.42L367.43 427.1C368.21 425.09 369.47 423.5 371.24 422.36C372.98 421.22 375.05 420.65 377.45 420.65C379.97 420.65 382.1 421.34 383.87 422.69C385.64 424.04 386.78 426.08 387.32 428.81L385.94 428.24C386.69 425.99 388.04 424.16 389.93 422.75C391.82 421.34 394.16 420.62 396.83 420.62Z" fill="#FFF9E7"/>
<path d="M423.98 448.94C422.06 448.94 420.38 448.61 418.94 447.92C417.5 447.23 416.42 446.27 415.67 445.07C414.92 443.84 414.53 442.46 414.53 440.87C414.53 439.43 414.86 438.11 415.49 436.94C416.12 435.77 417.17 434.81 418.64 434.09C420.11 433.37 422.06 433.01 424.52 433.01H433.4V435.8H424.61C422.12 435.8 420.38 436.28 419.42 437.24C418.46 438.2 417.98 439.37 417.98 440.78C417.98 442.37 418.55 443.63 419.69 444.59C420.83 445.55 422.45 446.03 424.49 446.03C426.47 446.03 428.15 445.55 429.56 444.56C430.97 443.57 432.02 442.19 432.68 440.36L433.46 442.94C432.8 444.77 431.66 446.24 430.04 447.32C428.48 448.4 426.44 448.94 423.98 448.94ZM432.86 448.67V442.52L432.71 441.5V431.24C432.71 428.87 432.08 427.07 430.88 425.78C429.65 424.52 427.82 423.86 425.39 423.86C423.71 423.86 422.12 424.16 420.62 424.76C419.12 425.36 417.83 426.14 416.78 427.13L415.22 424.34C416.54 423.14 418.1 422.21 419.93 421.55C421.76 420.89 423.68 420.56 425.72 420.56C429.05 420.56 431.63 421.46 433.46 423.23C435.29 425 436.19 427.73 436.19 431.36V448.61H432.86V448.67Z" fill="#FFF9E7"/>
<path d="M473.12 449C468.74 449 465.29 447.65 462.77 444.92C460.25 442.19 458.99 438.17 458.99 432.86V411.62H462.62V432.68C462.62 437.06 463.55 440.3 465.38 442.37C467.21 444.44 469.79 445.49 473.15 445.49C476.51 445.49 479.12 444.44 480.95 442.37C482.78 440.3 483.71 437.06 483.71 432.68V411.62H487.25V432.86C487.25 438.2 485.99 442.22 483.5 444.92C480.95 447.62 477.53 449 473.12 449Z" fill="#FFF9E7"/>
<path d="M510.59 420.62C512.69 420.62 514.52 421.04 516.11 421.91C517.7 422.78 518.93 424.1 519.83 425.84C520.73 427.58 521.18 429.83 521.18 432.5V448.64H517.7V432.86C517.7 429.92 517.01 427.73 515.66 426.23C514.31 424.73 512.39 423.98 509.93 423.98C508.1 423.98 506.51 424.37 505.13 425.18C503.78 425.96 502.73 427.13 501.98 428.63C501.23 430.13 500.87 431.93 500.87 434.06V448.67H497.39V420.89H500.72V428.51L500.18 427.07C500.99 425.06 502.31 423.47 504.11 422.33C505.97 421.19 508.1 420.62 510.59 420.62Z" fill="#FFF9E7"/>
<path d="M532.4 414.74C531.68 414.74 531.08 414.47 530.57 413.96C530.09 413.42 529.82 412.79 529.82 412.07C529.82 411.35 530.06 410.69 530.57 410.18C531.05 409.67 531.68 409.4 532.4 409.4C533.12 409.4 533.72 409.64 534.23 410.15C534.71 410.66 534.98 411.26 534.98 412.01C534.98 412.79 534.74 413.45 534.26 413.96C533.78 414.47 533.15 414.74 532.4 414.74ZM530.63 448.67V420.89H534.11V448.67H530.63Z" fill="#FFF9E7"/>
<path d="M550.46 448.671L539.03 420.891H542.66L553.16 446.661H551.45L562.1 420.891H565.55L554.06 448.671H550.46Z" fill="#FFF9E7"/>
<path d="M581.39 448.94C578.72 448.94 576.35 448.34 574.31 447.11C572.27 445.88 570.68 444.23 569.54 442.07C568.4 439.91 567.83 437.48 567.83 434.75C567.83 431.99 568.37 429.56 569.48 427.46C570.59 425.33 572.09 423.68 574.01 422.45C575.93 421.22 578.09 420.62 580.46 420.62C582.89 420.62 585.02 421.22 586.91 422.39C588.8 423.56 590.27 425.24 591.35 427.37C592.43 429.5 592.97 431.96 592.97 434.75C592.97 434.93 592.97 435.11 592.94 435.32C592.91 435.5 592.91 435.71 592.91 435.92H570.47V433.13H591.05L589.67 434.24C589.67 432.23 589.28 430.43 588.47 428.87C587.66 427.31 586.58 426.08 585.2 425.18C583.82 424.28 582.23 423.86 580.43 423.86C578.66 423.86 577.07 424.31 575.66 425.18C574.25 426.05 573.17 427.31 572.36 428.9C571.58 430.49 571.19 432.29 571.19 434.36V434.93C571.19 437.06 571.61 438.92 572.48 440.51C573.35 442.1 574.55 443.36 576.11 444.26C577.67 445.16 579.44 445.61 581.45 445.61C583.01 445.61 584.48 445.31 585.83 444.71C587.18 444.11 588.35 443.21 589.34 441.95L591.29 444.38C590.15 445.85 588.71 446.99 587 447.77C585.35 448.55 583.46 448.94 581.39 448.94Z" fill="#FFF9E7"/>
<path d="M600.08 448.67V420.89H603.41V428.45L603.05 427.13C603.77 425 604.97 423.41 606.68 422.3C608.39 421.19 610.49 420.62 613.01 420.62V424.28C612.89 424.28 612.74 424.28 612.62 424.25C612.5 424.22 612.35 424.22 612.23 424.22C609.5 424.22 607.4 425.12 605.84 426.89C604.31 428.66 603.53 431.21 603.53 434.48V448.67H600.08Z" fill="#FFF9E7"/>
<path d="M626.69 448.94C624.56 448.94 622.55 448.61 620.66 447.95C618.77 447.29 617.27 446.48 616.19 445.49L617.75 442.52C618.8 443.36 620.15 444.11 621.77 444.71C623.42 445.34 625.13 445.64 626.93 445.64C629.39 445.64 631.16 445.22 632.24 444.41C633.32 443.57 633.86 442.49 633.86 441.11C633.86 440.09 633.56 439.28 632.96 438.71C632.36 438.14 631.55 437.69 630.59 437.39C629.6 437.09 628.52 436.82 627.29 436.61C626.06 436.4 624.89 436.16 623.69 435.86C622.49 435.59 621.41 435.17 620.42 434.63C619.43 434.09 618.65 433.34 618.05 432.38C617.45 431.42 617.15 430.16 617.15 428.57C617.15 427.07 617.54 425.69 618.32 424.49C619.1 423.29 620.27 422.36 621.77 421.67C623.3 420.98 625.16 420.65 627.35 420.65C629.03 420.65 630.68 420.89 632.36 421.37C634.04 421.85 635.39 422.48 636.5 423.26L634.97 426.26C633.83 425.42 632.6 424.79 631.28 424.43C629.96 424.07 628.67 423.86 627.35 423.86C625.01 423.86 623.33 424.28 622.22 425.15C621.11 426.02 620.57 427.13 620.57 428.45C620.57 429.5 620.87 430.34 621.47 430.94C622.07 431.54 622.88 432.02 623.87 432.35C624.86 432.68 625.97 432.95 627.17 433.16C628.37 433.37 629.57 433.64 630.74 433.94C631.94 434.24 633.02 434.66 634.04 435.17C635.03 435.68 635.84 436.4 636.44 437.33C637.04 438.26 637.34 439.49 637.34 441.02C637.34 442.64 636.92 444.05 636.08 445.22C635.24 446.39 634.04 447.32 632.45 447.98C630.89 448.61 628.97 448.94 626.69 448.94Z" fill="#FFF9E7"/>
<path d="M645.5 414.74C644.78 414.74 644.18 414.47 643.67 413.96C643.19 413.42 642.92 412.79 642.92 412.07C642.92 411.35 643.16 410.69 643.67 410.18C644.15 409.67 644.78 409.4 645.5 409.4C646.22 409.4 646.82 409.64 647.33 410.15C647.81 410.66 648.08 411.26 648.08 412.01C648.08 412.79 647.84 413.45 647.36 413.96C646.88 414.47 646.25 414.74 645.5 414.74ZM643.73 448.67V420.89H647.21V448.67H643.73Z" fill="#FFF9E7"/>
<path d="M652.91 424.01V420.89H668.87V424.01H652.91ZM665.09 448.94C662.66 448.94 660.8 448.25 659.48 446.81C658.16 445.4 657.53 443.42 657.53 440.84V414.74H661.01V440.63C661.01 442.25 661.4 443.51 662.15 444.38C662.93 445.25 664.01 445.7 665.45 445.7C666.98 445.7 668.27 445.22 669.29 444.26L670.52 446.96C669.83 447.62 669.02 448.13 668.03 448.43C667.1 448.76 666.11 448.94 665.09 448.94Z" fill="#FFF9E7"/>
<path d="M677.06 459.2C675.86 459.2 674.69 458.99 673.61 458.57C672.5 458.15 671.57 457.52 670.79 456.68L672.41 453.86C673.07 454.52 673.79 455.06 674.54 455.42C675.32 455.78 676.16 455.99 677.12 455.99C678.26 455.99 679.25 455.66 680.09 454.97C680.93 454.28 681.71 453.08 682.46 451.34L684.14 447.26L684.53 446.69L695.15 420.92H698.6L685.7 452.03C684.98 453.83 684.2 455.27 683.33 456.32C682.46 457.37 681.53 458.12 680.51 458.57C679.43 458.99 678.32 459.2 677.06 459.2ZM683.93 449.45L672.05 420.86H675.68L686.18 446.36L683.93 449.45Z" fill="#FFF9E7"/>
<path d="M267.47 512.51C264.89 512.51 262.49 512.03 260.3 511.1C258.11 510.17 256.22 508.85 254.6 507.17C252.98 505.49 251.75 503.48 250.85 501.2C249.95 498.92 249.5 496.4 249.5 493.7C249.5 490.97 249.95 488.48 250.85 486.2C251.75 483.92 253.01 481.91 254.63 480.23C256.25 478.55 258.17 477.23 260.36 476.3C262.55 475.37 264.95 474.89 267.53 474.89C270.02 474.89 272.36 475.34 274.55 476.24C276.74 477.14 278.6 478.49 280.1 480.29L277.79 482.78C276.38 481.22 274.82 480.11 273.14 479.42C271.46 478.73 269.6 478.4 267.65 478.4C265.58 478.4 263.66 478.79 261.92 479.54C260.18 480.29 258.62 481.37 257.3 482.78C255.98 484.16 254.96 485.81 254.24 487.64C253.49 489.5 253.13 491.54 253.13 493.76C253.13 495.98 253.49 498.02 254.24 499.88C254.99 501.74 256.01 503.36 257.3 504.74C258.59 506.12 260.15 507.2 261.92 507.98C263.69 508.76 265.61 509.12 267.65 509.12C269.6 509.12 271.46 508.76 273.14 508.07C274.82 507.38 276.41 506.24 277.79 504.68L280.1 507.17C278.6 508.97 276.74 510.32 274.55 511.25C272.36 512.18 269.99 512.51 267.47 512.51Z" fill="#FFF9E7"/>
<path d="M297.62 512.45C295.1 512.45 292.85 511.85 290.9 510.62C288.95 509.39 287.39 507.71 286.25 505.58C285.11 503.42 284.54 500.99 284.54 498.29C284.54 495.5 285.11 493.04 286.25 490.94C287.39 488.81 288.95 487.16 290.9 485.96C292.85 484.76 295.1 484.16 297.62 484.16C300.17 484.16 302.45 484.76 304.43 485.99C306.41 487.22 307.97 488.87 309.08 490.97C310.22 493.07 310.76 495.5 310.76 498.29C310.76 501.05 310.19 503.48 309.08 505.61C307.94 507.74 306.38 509.42 304.4 510.65C302.39 511.85 300.14 512.45 297.62 512.45ZM297.62 509.12C299.48 509.12 301.13 508.67 302.57 507.77C304.01 506.87 305.15 505.61 305.99 503.96C306.83 502.31 307.25 500.42 307.25 498.26C307.25 496.07 306.83 494.18 305.99 492.53C305.15 490.88 304.01 489.65 302.57 488.75C301.13 487.85 299.48 487.4 297.65 487.4C295.82 487.4 294.17 487.85 292.73 488.75C291.29 489.65 290.15 490.91 289.28 492.53C288.41 494.15 287.99 496.07 287.99 498.26C287.99 500.42 288.41 502.31 289.28 503.96C290.15 505.61 291.26 506.87 292.7 507.77C294.14 508.67 295.79 509.12 297.62 509.12Z" fill="#FFF9E7"/>
<path d="M350.09 484.129C352.19 484.129 354.02 484.549 355.55 485.419C357.11 486.289 358.31 487.609 359.18 489.349C360.05 491.119 360.47 493.339 360.47 496.009V512.149H356.99V496.369C356.99 493.429 356.33 491.239 355.04 489.739C353.75 488.239 351.92 487.489 349.58 487.489C347.81 487.489 346.28 487.879 344.99 488.689C343.7 489.469 342.71 490.639 341.99 492.139C341.3 493.639 340.94 495.439 340.94 497.569V512.179H337.46V496.399C337.46 493.459 336.8 491.269 335.51 489.769C334.22 488.269 332.36 487.519 330.02 487.519C328.28 487.519 326.75 487.909 325.46 488.719C324.14 489.499 323.15 490.669 322.43 492.169C321.74 493.669 321.38 495.469 321.38 497.599V512.209H317.9V484.429H321.23V491.959L320.69 490.639C321.47 488.629 322.73 487.039 324.5 485.899C326.24 484.759 328.31 484.189 330.71 484.189C333.23 484.189 335.36 484.879 337.13 486.229C338.9 487.579 340.04 489.619 340.58 492.349L339.2 491.779C339.95 489.529 341.3 487.699 343.19 486.289C345.08 484.879 347.42 484.129 350.09 484.129Z" fill="#FFF9E7"/>
<path d="M369.98 522.439V484.369H373.31V492.739L372.98 498.289L373.46 503.899V522.409H369.98V522.439ZM383.3 512.449C381.08 512.449 379.07 511.909 377.27 510.769C375.47 509.659 374.03 508.039 372.98 505.939C371.93 503.839 371.39 501.289 371.39 498.229C371.39 495.169 371.9 492.619 372.95 490.519C374 488.419 375.41 486.829 377.21 485.719C379.01 484.639 381.05 484.069 383.3 484.069C385.76 484.069 387.95 484.669 389.9 485.839C391.85 487.009 393.38 488.689 394.49 490.819C395.6 492.949 396.17 495.409 396.17 498.199C396.17 501.019 395.6 503.479 394.49 505.609C393.38 507.739 391.85 509.389 389.9 510.589C387.95 511.849 385.73 512.449 383.3 512.449ZM383.03 509.119C384.86 509.119 386.51 508.669 387.95 507.769C389.39 506.869 390.53 505.609 391.4 503.959C392.27 502.309 392.69 500.419 392.69 498.259C392.69 496.099 392.27 494.209 391.4 492.589C390.53 490.969 389.39 489.709 387.95 488.779C386.51 487.849 384.86 487.399 383.03 487.399C381.2 487.399 379.55 487.849 378.11 488.779C376.67 489.709 375.5 490.969 374.66 492.589C373.82 494.209 373.4 496.099 373.4 498.259C373.4 500.419 373.82 502.309 374.66 503.959C375.5 505.609 376.64 506.869 378.11 507.769C379.55 508.669 381.2 509.119 383.03 509.119Z" fill="#FFF9E7"/>
<path d="M413.93 512.45C411.74 512.45 409.82 512 408.17 511.13C406.52 510.26 405.26 508.91 404.36 507.17C403.46 505.43 403.01 503.21 403.01 500.54V484.4H406.49V500.12C406.49 503.09 407.18 505.31 408.53 506.81C409.88 508.31 411.8 509.06 414.26 509.06C416.06 509.06 417.62 508.67 418.94 507.86C420.26 507.08 421.28 505.91 421.97 504.38C422.66 502.88 423.02 501.05 423.02 498.92V484.37H426.5V512.15H423.17V504.53L423.71 505.91C422.9 507.95 421.61 509.54 419.9 510.71C418.22 511.88 416.21 512.45 413.93 512.45Z" fill="#FFF9E7"/>
<path d="M432.23 487.52V484.4H448.19V487.52H432.23ZM444.41 512.45C441.98 512.45 440.12 511.76 438.8 510.32C437.48 508.91 436.82 506.93 436.82 504.35V478.25H440.3V504.14C440.3 505.76 440.69 507.02 441.44 507.89C442.22 508.76 443.3 509.21 444.74 509.21C446.27 509.21 447.56 508.73 448.58 507.77L449.81 510.47C449.12 511.13 448.31 511.64 447.32 511.94C446.42 512.3 445.43 512.45 444.41 512.45Z" fill="#FFF9E7"/>
<path d="M467.15 512.449C464.48 512.449 462.11 511.849 460.07 510.619C458.03 509.389 456.44 507.739 455.3 505.579C454.16 503.419 453.59 500.989 453.59 498.259C453.59 495.499 454.13 493.069 455.24 490.969C456.35 488.839 457.85 487.189 459.77 485.959C461.69 484.729 463.85 484.129 466.22 484.129C468.65 484.129 470.78 484.729 472.67 485.899C474.56 487.069 476.03 488.749 477.11 490.879C478.19 493.009 478.73 495.469 478.73 498.259C478.73 498.439 478.73 498.619 478.7 498.799C478.67 499.009 478.67 499.189 478.67 499.399H456.23V496.609H476.81L475.43 497.719C475.43 495.709 475.04 493.909 474.23 492.349C473.42 490.789 472.34 489.559 470.96 488.659C469.58 487.759 467.99 487.339 466.19 487.339C464.42 487.339 462.83 487.789 461.42 488.659C460.01 489.529 458.93 490.789 458.12 492.349C457.34 493.939 456.95 495.769 456.95 497.809V498.379C456.95 500.509 457.37 502.369 458.24 503.959C459.11 505.549 460.31 506.809 461.87 507.709C463.43 508.609 465.2 509.059 467.21 509.059C468.77 509.059 470.24 508.759 471.59 508.159C472.94 507.559 474.11 506.629 475.1 505.399L477.05 507.829C475.91 509.299 474.47 510.439 472.76 511.219C471.08 512.059 469.19 512.449 467.15 512.449Z" fill="#FFF9E7"/>
<path d="M485.84 512.179V484.399H489.17V491.959L488.81 490.639C489.53 488.509 490.73 486.919 492.44 485.809C494.15 484.699 496.25 484.129 498.77 484.129V487.789C498.65 487.789 498.5 487.789 498.38 487.759C498.26 487.729 498.11 487.729 497.99 487.729C495.26 487.729 493.16 488.629 491.6 490.399C490.07 492.169 489.29 494.719 489.29 497.989V512.179H485.84Z" fill="#FFF9E7"/>
<path d="M528.62 512.51C526.07 512.51 523.61 512.06 521.27 511.16C518.93 510.26 517.13 509.09 515.84 507.68L517.25 504.68C518.45 505.94 520.1 507.02 522.14 507.89C524.18 508.76 526.34 509.18 528.59 509.18C530.75 509.18 532.52 508.88 533.87 508.31C535.22 507.74 536.24 506.93 536.87 505.94C537.5 504.95 537.83 503.87 537.83 502.67C537.83 501.23 537.44 500.06 536.69 499.19C535.91 498.32 534.92 497.6 533.66 497.09C532.4 496.58 531.05 496.13 529.52 495.74C528.02 495.35 526.52 494.93 524.99 494.48C523.49 494.03 522.11 493.46 520.85 492.71C519.59 491.96 518.57 491 517.82 489.77C517.04 488.54 516.68 486.95 516.68 484.97C516.68 483.14 517.13 481.46 518.03 479.93C518.93 478.4 520.31 477.17 522.17 476.21C524.03 475.28 526.43 474.8 529.34 474.8C531.26 474.8 533.18 475.1 535.1 475.67C536.99 476.24 538.64 477.05 540.02 478.07L538.79 481.19C537.32 480.14 535.76 479.36 534.11 478.85C532.46 478.34 530.87 478.1 529.31 478.1C527.24 478.1 525.56 478.4 524.21 479C522.86 479.6 521.87 480.41 521.24 481.4C520.61 482.39 520.28 483.53 520.28 484.82C520.28 486.26 520.67 487.43 521.42 488.3C522.2 489.17 523.19 489.86 524.45 490.37C525.71 490.88 527.09 491.3 528.59 491.69C530.09 492.08 531.59 492.5 533.09 492.95C534.59 493.4 535.97 494 537.23 494.72C538.49 495.44 539.51 496.4 540.26 497.6C541.04 498.8 541.4 500.36 541.4 502.31C541.4 504.11 540.95 505.79 540.02 507.32C539.09 508.85 537.71 510.08 535.82 511.04C533.96 512.03 531.56 512.51 528.62 512.51Z" fill="#FFF9E7"/>
<path d="M559.1 512.45C556.58 512.45 554.33 511.85 552.38 510.62C550.43 509.39 548.87 507.71 547.73 505.58C546.59 503.45 546.02 500.99 546.02 498.29C546.02 495.5 546.59 493.04 547.73 490.94C548.87 488.81 550.43 487.16 552.38 485.96C554.36 484.76 556.58 484.16 559.1 484.16C561.65 484.16 563.93 484.76 565.91 485.99C567.89 487.22 569.45 488.87 570.56 490.97C571.7 493.07 572.24 495.5 572.24 498.29C572.24 501.05 571.67 503.48 570.56 505.61C569.42 507.74 567.86 509.42 565.88 510.65C563.87 511.85 561.62 512.45 559.1 512.45ZM559.1 509.12C560.96 509.12 562.61 508.67 564.05 507.77C565.49 506.87 566.63 505.61 567.47 503.96C568.31 502.31 568.73 500.42 568.73 498.26C568.73 496.07 568.31 494.18 567.47 492.53C566.63 490.91 565.49 489.65 564.05 488.75C562.61 487.85 560.96 487.4 559.13 487.4C557.3 487.4 555.65 487.85 554.21 488.75C552.77 489.65 551.63 490.91 550.76 492.53C549.92 494.15 549.47 496.07 549.47 498.26C549.47 500.42 549.89 502.31 550.76 503.96C551.6 505.61 552.74 506.87 554.18 507.77C555.65 508.67 557.27 509.12 559.1 509.12Z" fill="#FFF9E7"/>
<path d="M590.06 512.449C587.51 512.449 585.23 511.849 583.22 510.619C581.21 509.389 579.62 507.739 578.48 505.579C577.34 503.419 576.77 500.989 576.77 498.259C576.77 495.469 577.34 493.009 578.48 490.909C579.62 488.779 581.21 487.129 583.22 485.929C585.23 484.729 587.51 484.129 590.06 484.129C592.25 484.129 594.23 484.579 596 485.509C597.77 486.439 599.15 487.789 600.17 489.649L597.56 491.539C596.69 490.129 595.58 489.079 594.26 488.419C592.94 487.759 591.53 487.429 590 487.429C588.17 487.429 586.52 487.879 585.05 488.779C583.58 489.679 582.41 490.939 581.57 492.559C580.73 494.179 580.28 496.099 580.28 498.289C580.28 500.479 580.7 502.369 581.57 504.019C582.41 505.639 583.58 506.899 585.05 507.799C586.52 508.699 588.17 509.149 590 509.149C591.53 509.149 592.97 508.819 594.26 508.159C595.58 507.499 596.66 506.479 597.56 505.099L600.17 506.989C599.15 508.789 597.77 510.169 596 511.099C594.23 512.029 592.28 512.449 590.06 512.449Z" fill="#FFF9E7"/>
<path d="M608.78 478.249C608.06 478.249 607.46 477.979 606.95 477.469C606.47 476.929 606.2 476.299 606.2 475.549C606.2 474.799 606.44 474.169 606.95 473.659C607.43 473.149 608.06 472.879 608.78 472.879C609.5 472.879 610.1 473.119 610.61 473.629C611.09 474.139 611.36 474.739 611.36 475.489C611.36 476.269 611.12 476.929 610.64 477.439C610.16 477.979 609.53 478.249 608.78 478.249ZM607.01 512.179V484.399H610.49V512.179H607.01Z" fill="#FFF9E7"/>
<path d="M631.16 512.449C628.49 512.449 626.12 511.849 624.08 510.619C622.04 509.389 620.45 507.739 619.31 505.579C618.17 503.419 617.6 500.989 617.6 498.259C617.6 495.499 618.14 493.069 619.25 490.969C620.36 488.839 621.86 487.189 623.78 485.959C625.7 484.729 627.86 484.129 630.23 484.129C632.66 484.129 634.79 484.729 636.68 485.899C638.57 487.069 640.04 488.749 641.12 490.879C642.2 493.009 642.74 495.469 642.74 498.259C642.74 498.439 642.74 498.619 642.71 498.799C642.68 499.009 642.68 499.189 642.68 499.399H620.24V496.609H640.82L639.44 497.719C639.44 495.709 639.05 493.909 638.24 492.349C637.43 490.789 636.35 489.559 634.97 488.659C633.59 487.759 632 487.339 630.2 487.339C628.43 487.339 626.84 487.789 625.43 488.659C624.02 489.529 622.94 490.789 622.13 492.349C621.35 493.939 620.96 495.769 620.96 497.809V498.379C620.96 500.509 621.38 502.369 622.25 503.959C623.12 505.549 624.32 506.809 625.88 507.709C627.44 508.609 629.21 509.059 631.22 509.059C632.78 509.059 634.25 508.759 635.6 508.159C636.95 507.559 638.12 506.629 639.11 505.399L641.06 507.829C639.92 509.299 638.48 510.439 636.77 511.219C635.12 512.059 633.23 512.449 631.16 512.449Z" fill="#FFF9E7"/>
<path d="M645.86 487.52V484.4H661.82V487.52H645.86ZM658.01 512.45C655.58 512.45 653.72 511.76 652.4 510.32C651.08 508.91 650.45 506.93 650.45 504.35V478.25H653.93V504.14C653.93 505.76 654.32 507.02 655.07 507.89C655.85 508.76 656.93 509.21 658.37 509.21C659.9 509.21 661.19 508.73 662.21 507.77L663.44 510.47C662.75 511.13 661.94 511.64 660.95 511.94C660.02 512.3 659.03 512.45 658.01 512.45Z" fill="#FFF9E7"/>
<path d="M670.01 522.709C668.81 522.709 667.64 522.499 666.56 522.079C665.45 521.659 664.52 521.029 663.74 520.189L665.36 517.369C666.02 518.029 666.74 518.569 667.49 518.929C668.27 519.289 669.11 519.499 670.07 519.499C671.21 519.499 672.2 519.169 673.04 518.479C673.88 517.789 674.66 516.589 675.41 514.849L677.09 510.769L677.48 510.199L688.1 484.429H691.55L678.65 515.539C677.93 517.339 677.15 518.779 676.28 519.829C675.41 520.879 674.48 521.629 673.46 522.079C672.38 522.499 671.24 522.709 670.01 522.709ZM676.88 512.989L665 484.399H668.63L679.13 509.899L676.88 512.989Z" fill="#FFF9E7"/>
<path d="M101 370.52L141.38 279.62H162.17L202.94 370.52H180.86L147.47 290.27H155.9L122.54 370.52H101ZM121.4 351.05L126.71 335.09H173.72L179.18 351.05H121.4Z" fill="#FFF9E7"/>
<path d="M212.45 370.52V279.62H233.63V353.39H278.96V370.52H212.45Z" fill="#FFF9E7"/>
<path d="M334.52 372.08C327.5 372.08 320.99 370.94 314.96 368.63C308.93 366.35 303.74 363.08 299.3 358.82C294.89 354.59 291.44 349.61 288.98 343.88C286.52 338.18 285.29 331.88 285.29 325.04C285.29 318.2 286.52 311.93 288.98 306.2C291.44 300.5 294.92 295.52 299.36 291.26C303.83 287.03 309.05 283.76 315.08 281.45C321.11 279.17 327.62 278 334.61 278C342.5 278 349.64 279.35 356.03 282.08C362.45 284.81 367.79 288.8 372.14 294.08L358.52 306.56C355.49 303.02 352.04 300.32 348.2 298.52C344.36 296.69 340.16 295.79 335.66 295.79C331.43 295.79 327.53 296.51 323.96 297.92C320.42 299.36 317.33 301.37 314.75 303.95C312.17 306.53 310.13 309.62 308.72 313.16C307.28 316.7 306.59 320.66 306.59 324.98C306.59 329.3 307.31 333.26 308.72 336.8C310.16 340.34 312.17 343.43 314.75 346.01C317.33 348.59 320.42 350.63 323.96 352.04C327.5 353.48 331.4 354.17 335.66 354.17C340.16 354.17 344.33 353.24 348.2 351.38C352.04 349.52 355.49 346.82 358.52 343.25L372.14 355.73C367.82 361.01 362.45 365.03 356.03 367.82C349.67 370.7 342.47 372.08 334.52 372.08Z" fill="#FFF9E7"/>
<path d="M496.31 370.52V279.62H513.71L552.41 343.76H543.2L581.12 279.62H598.64V370.52H579.02L578.75 309.86H582.65L551.99 360.77H542.63L511.58 309.86H515.87V370.52H496.31Z" fill="#FFF9E7"/>
<path d="M650.21 372.081C642.95 372.081 635.96 371.121 629.24 369.171C622.52 367.221 617.15 364.701 613.07 361.581L620.21 345.741C624.02 348.501 628.61 350.781 633.98 352.551C639.35 354.321 644.75 355.221 650.21 355.221C654.35 355.221 657.71 354.801 660.26 353.931C662.81 353.061 664.7 351.921 665.9 350.481C667.1 349.041 667.73 347.391 667.73 345.471C667.73 343.041 666.77 341.121 664.88 339.681C662.96 338.241 660.44 337.071 657.29 336.171C654.14 335.271 650.69 334.401 646.97 333.561C643.25 332.751 639.5 331.731 635.72 330.561C631.97 329.391 628.49 327.831 625.34 325.881C622.19 323.931 619.67 321.381 617.81 318.231C615.95 315.081 615.02 311.121 615.02 306.351C615.02 301.161 616.4 296.421 619.19 292.131C621.95 287.841 626.18 284.421 631.85 281.871C637.52 279.321 644.63 278.031 653.21 278.031C658.94 278.031 664.58 278.721 670.16 280.101C675.74 281.481 680.6 283.491 684.77 286.071L678.14 301.911C674.06 299.571 669.86 297.831 665.54 296.661C661.22 295.491 657.05 294.921 653.06 294.921C648.92 294.921 645.56 295.371 643.07 296.271C640.55 297.171 638.72 298.401 637.55 299.961C636.38 301.521 635.81 303.261 635.81 305.151C635.81 307.581 636.77 309.531 638.66 311.001C640.55 312.471 643.07 313.611 646.19 314.451C649.31 315.261 652.76 316.101 656.57 316.911C660.38 317.721 664.13 318.741 667.88 319.971C671.6 321.171 675.02 322.731 678.14 324.591C681.26 326.451 683.78 328.971 685.73 332.121C687.68 335.271 688.64 339.201 688.64 343.881C688.64 348.981 687.23 353.661 684.41 357.891C681.59 362.121 677.33 365.541 671.63 368.151C665.93 370.791 658.79 372.081 650.21 372.081Z" fill="#FFF9E7"/>
<path d="M476.24 307.67C475.46 293.15 455.69 280.82 432.98 280.82C410.27 280.82 390.5 293.09 389.72 307.67C389.03 321.35 389.03 328.04 389.72 341.66C390.5 356.18 410.27 368.51 432.98 368.51C455.69 368.51 475.46 356.24 476.24 341.66C477.02 327.92 477.02 321.29 476.24 307.67ZM472.7 341.54C472.01 354.89 453.89 366.05 433.1 366.05C412.31 366.05 394.19 354.83 393.5 341.54C392.81 328.25 392.81 321.32 393.5 307.7C394.19 294.08 412.31 283.19 433.1 283.19C453.89 283.19 472.01 294.41 472.7 307.7C473.39 320.99 473.39 327.92 472.7 341.54ZM434.9 302.45V319.49C435.08 320.15 434.39 320.78 433.43 320.9C432.47 321.02 431.45 320.57 431.27 319.94C431.18 319.82 431.18 319.61 431.27 319.49V302.45C431.09 301.79 431.78 301.16 432.74 301.04C433.7 300.92 434.72 301.37 434.9 302C434.99 302.12 434.99 302.3 434.9 302.45Z" fill="#FFF9E7" stroke="#FFF9E7" stroke-width="2" stroke-miterlimit="10"/>
<path d="M230.36 403.22V522.71" stroke="#FFF9E7" stroke-miterlimit="10"/>
<path d="M105.986 404.369C104.294 405.227 102.971 406.781 102.485 408.449C102.254 409.307 102.185 415.244 102.185 440.123C102.185 469.013 102.209 470.801 102.602 471.935C103.157 473.534 104.573 475.088 106.196 475.877L107.519 476.525L125.42 476.594L143.321 476.663L143.204 478.565C142.994 481.949 142.649 485.522 142.391 487.238L142.112 488.93H138.008C134.021 488.93 133.904 488.954 133.418 489.464C132.722 490.205 132.746 491.342 133.487 492.062L134.042 492.641H155.165H176.288L176.843 492.062C177.608 491.321 177.632 490.136 176.888 489.443C176.378 488.957 176.147 488.933 172.274 488.933H168.215L167.936 487.241C167.681 485.525 167.333 481.955 167.123 478.568L167.006 476.666L184.907 476.597L202.808 476.528L204.131 475.88C205.754 475.091 207.167 473.537 207.725 471.938C208.118 470.801 208.142 469.016 208.142 440.126C208.142 415.247 208.073 409.31 207.842 408.452C207.356 406.784 206.033 405.23 204.341 404.372L202.88 403.607H155.162H107.444L105.986 404.369ZM202.7 407.663C203.141 407.942 203.696 408.497 203.975 408.938C204.44 409.751 204.44 410.075 204.509 434.606L204.554 459.485H202.352H200.15L200.105 446.267C200.036 431.612 200.129 432.47 198.482 432.191C197.786 432.098 197.531 432.167 197.045 432.656L196.442 433.259V446.384V459.485H155.168H113.894L113.939 437.273L114.008 415.082H155.165H196.322L196.439 421.064L196.556 427.07L197.135 427.535C197.783 428.069 199.061 427.976 199.661 427.373C200.216 426.818 200.333 415.292 199.799 413.879C199.358 412.721 198.386 411.839 197.18 411.491C196.601 411.353 182.759 411.26 155.048 411.26C111.179 411.284 112.754 411.236 111.527 412.349C111.272 412.58 110.855 413.183 110.624 413.693C110.207 414.575 110.183 415.781 110.183 437.042V459.488H107.981H105.779L105.824 434.609C105.893 411.329 105.917 409.706 106.31 409.01C106.775 408.128 107.561 407.573 108.629 407.318C109.022 407.201 130.193 407.156 155.63 407.156C201.701 407.198 201.887 407.198 202.7 407.663ZM204.506 466.721C204.413 470.87 204.182 471.545 202.466 472.424L201.446 472.934H155.165H108.884L107.864 472.4C106.148 471.542 105.917 470.87 105.824 466.718L105.731 463.193H155.165H204.599L204.506 466.721ZM163.373 478.082C163.442 478.895 163.559 480.539 163.628 481.745C163.766 483.947 164.114 487.079 164.348 488.285L164.486 488.933H155.165H145.844L145.982 488.285C146.213 487.079 146.561 483.95 146.702 481.745C146.771 480.539 146.888 478.892 146.957 478.082L147.095 476.645H155.165H163.235L163.373 478.082Z" fill="#FFF9E7"/>
<path d="M144.452 425.795C143.594 426.722 127.595 445.433 126.692 446.594C126.02 447.476 126.044 448.472 126.761 449.168C127.295 449.723 128.084 449.888 128.825 449.609C129.197 449.471 147.188 428.51 147.677 427.628C148.118 426.863 148.025 426.122 147.398 425.519C146.54 424.637 145.472 424.727 144.452 425.795Z" fill="#FFF9E7"/>
<path d="M132.071 429.644C131.63 429.899 128.522 433.262 126.806 435.326C126.017 436.301 125.993 437.297 126.761 438.038C127.526 438.827 128.522 438.803 129.404 437.969C130.865 436.601 134.552 432.266 134.666 431.756C134.897 430.874 134.573 430.088 133.832 429.692C133.022 429.272 132.719 429.272 132.071 429.644Z" fill="#FFF9E7"/>
<path d="M150.413 466.79C149.6 467.579 149.624 468.785 150.437 469.433C151.016 469.874 151.364 469.919 155.168 469.919C158.972 469.919 159.317 469.874 159.899 469.433C160.712 468.785 160.733 467.579 159.923 466.79C159.368 466.211 159.32 466.211 155.171 466.211C151.022 466.211 150.968 466.211 150.413 466.79Z" fill="#FFF9E7"/>
<path d="M113.705 498.602C113.288 498.812 112.754 499.25 112.523 499.577C111.944 500.411 106.472 517.826 106.472 518.846C106.472 519.959 107.12 521.165 108.071 521.792L108.86 522.326H155.165H201.47L202.259 521.792C203.21 521.165 203.858 519.959 203.858 518.801C203.858 517.85 198.548 500.9 197.9 499.787C197.669 499.394 197.111 498.884 196.67 498.65C195.905 498.233 194.675 498.209 165.437 498.209H135.014L134.549 498.812C133.901 499.625 133.946 500.366 134.618 501.155L135.173 501.803L165.014 501.92L194.855 502.037L197.498 510.362C198.959 514.952 200.141 518.732 200.141 518.78C200.141 518.804 179.9 518.849 155.159 518.849C130.418 518.849 110.177 518.804 110.177 518.78C110.177 518.735 111.359 514.955 112.82 510.362L115.463 502.037L122.186 501.92C128.378 501.803 128.957 501.758 129.398 501.365C130.046 500.762 130.07 499.325 129.422 498.674C128.981 498.233 128.657 498.209 121.724 498.209C115.514 498.209 114.356 498.278 113.705 498.602Z" fill="#FFF9E7"/>
<path d="M124.349 506C123.677 506.858 123.746 507.623 124.559 508.457C125.255 509.129 125.324 509.153 127.085 509.084C129.311 508.967 129.89 508.574 129.89 507.206C129.89 505.721 129.356 505.397 126.899 505.397C124.928 505.397 124.79 505.418 124.349 506Z" fill="#FFF9E7"/>
<path d="M133.88 505.93C133.37 506.464 133.232 507.322 133.508 508.063C134.063 509.455 138.701 509.455 139.259 508.063C139.559 507.274 139.397 506.395 138.866 505.906C138.401 505.465 138.053 505.396 136.361 505.396C134.597 505.396 134.321 505.441 133.88 505.93Z" fill="#FFF9E7"/>
<path d="M143.339 505.859C142.736 506.462 142.736 507.713 143.315 508.433C143.687 508.874 144.011 508.988 145.403 509.06C147.305 509.177 148.256 508.874 148.649 508.04C149.021 507.206 148.973 506.696 148.418 506C147.977 505.421 147.839 505.397 145.868 505.397C144.104 505.397 143.735 505.466 143.339 505.859Z" fill="#FFF9E7"/>
<path d="M152.822 505.838C152.102 506.417 152.081 507.764 152.798 508.481C153.263 508.922 153.563 508.991 155.279 508.991C156.995 508.991 157.295 508.922 157.76 508.481C158.456 507.785 158.432 506.393 157.715 505.814C156.95 505.211 153.587 505.211 152.822 505.838Z" fill="#FFF9E7"/>
<path d="M162.143 506C161.588 506.696 161.54 507.206 161.912 508.04C162.305 508.874 163.256 509.177 165.158 509.06C167.06 508.967 167.684 508.481 167.684 507.113C167.684 505.745 167.081 505.397 164.693 505.397C162.725 505.397 162.584 505.418 162.143 506Z" fill="#FFF9E7"/>
<path d="M171.674 505.932C171.047 506.604 171.026 507.717 171.605 508.437C171.953 508.878 172.301 508.992 173.552 509.064C174.41 509.109 175.361 509.088 175.685 509.019C177.122 508.647 177.632 507.165 176.705 506.004C176.264 505.425 176.126 505.401 174.2 505.401C172.37 505.398 172.115 505.443 171.674 505.932Z" fill="#FFF9E7"/>
<path d="M180.902 505.859C180.254 506.507 180.275 507.947 180.926 508.55C181.298 508.874 181.853 509.015 183.245 509.084C185.006 509.153 185.078 509.129 185.771 508.457C186.584 507.623 186.653 506.858 185.981 506C185.54 505.421 185.402 505.397 183.431 505.397C181.667 505.397 181.298 505.466 180.902 505.859Z" fill="#FFF9E7"/>
<path d="M124.349 512.261C124.07 512.609 123.863 513.119 123.863 513.398C123.863 513.677 124.073 514.187 124.349 514.535C124.79 515.114 124.928 515.138 126.899 515.138C129.311 515.138 129.89 514.79 129.89 513.398C129.89 512.006 129.311 511.658 126.899 511.658C124.928 511.658 124.79 511.679 124.349 512.261Z" fill="#FFF9E7"/>
<path d="M133.832 512.168C133.229 512.816 133.229 514.07 133.832 514.673C134.225 515.066 134.597 515.138 136.382 515.138C138.818 515.138 139.397 514.814 139.397 513.398C139.397 512.006 138.818 511.658 136.382 511.658C134.552 511.658 134.249 511.727 133.832 512.168Z" fill="#FFF9E7"/>
<path d="M143.339 512.12C143.06 512.399 142.874 512.885 142.874 513.395C142.874 514.787 143.453 515.135 145.865 515.135C147.836 515.135 147.974 515.111 148.415 514.532C148.694 514.184 148.901 513.674 148.901 513.395C148.901 513.116 148.691 512.606 148.415 512.258C147.974 511.679 147.836 511.655 145.865 511.655C144.104 511.658 143.735 511.727 143.339 512.12Z" fill="#FFF9E7"/>
<path d="M152.729 512.12C152.474 512.399 152.288 512.954 152.288 513.395C152.288 514.808 152.843 515.135 155.279 515.135C157.736 515.135 158.225 514.856 158.225 513.395C158.225 511.934 157.739 511.655 155.279 511.655C153.425 511.658 153.101 511.727 152.729 512.12Z" fill="#FFF9E7"/>
<path d="M162.143 512.261C161.864 512.609 161.657 513.119 161.657 513.398C161.657 513.677 161.867 514.187 162.143 514.535C162.584 515.114 162.722 515.138 164.693 515.138C167.105 515.138 167.684 514.79 167.684 513.398C167.684 512.006 167.105 511.658 164.693 511.658C162.725 511.658 162.584 511.679 162.143 512.261Z" fill="#FFF9E7"/>
<path d="M171.629 512.12C171.35 512.399 171.164 512.885 171.164 513.395C171.164 514.787 171.743 515.135 174.179 515.135C176.012 515.135 176.312 515.066 176.729 514.625C176.984 514.346 177.194 513.812 177.194 513.395C177.194 512.978 176.984 512.444 176.729 512.165C176.312 511.724 176.009 511.655 174.179 511.655C172.394 511.658 172.022 511.727 171.629 512.12Z" fill="#FFF9E7"/>
<path d="M180.902 512.12C180.623 512.399 180.437 512.885 180.437 513.395C180.437 514.787 181.016 515.135 183.428 515.135C185.399 515.135 185.537 515.111 185.978 514.532C186.257 514.184 186.464 513.674 186.464 513.395C186.464 513.116 186.254 512.606 185.978 512.258C185.537 511.679 185.399 511.655 183.428 511.655C181.667 511.658 181.298 511.727 180.902 512.12Z" fill="#FFF9E7"/>
</g>
<defs>
<clipPath id="clip0_613_11">
<rect width="800" height="800" fill="white"/>
</clipPath>
</defs>
</svg>
