<svg width="550" height="226" viewBox="0 0 550 226" fill="none" xmlns="http://www.w3.org/2000/svg">
<path d="M134.748 157.133L149.168 123.088H152.456L166.877 157.133H163.356L150.1 125.185H151.447L138.191 157.133H134.748ZM140.443 148.02L141.427 145.094H159.783L160.767 148.02H140.443Z" fill="#FFF9E7"/>
<path d="M171.459 157.133V121.068H174.67V157.133H171.459Z" fill="#FFF9E7"/>
<path d="M193.103 156.149C190.851 156.149 188.831 155.631 187.019 154.57C185.207 153.508 183.783 152.058 182.747 150.168C181.712 148.278 181.194 146.13 181.194 143.696C181.194 141.262 181.712 139.113 182.747 137.249C183.783 135.385 185.207 133.935 187.019 132.9C188.831 131.864 190.851 131.346 193.103 131.346C195.2 131.346 197.09 131.812 198.799 132.744C200.482 133.676 201.828 135.075 202.812 136.939C203.796 138.777 204.314 141.029 204.314 143.696C204.314 146.363 203.822 148.615 202.812 150.453C201.828 152.291 200.482 153.715 198.799 154.673C197.116 155.657 195.226 156.149 193.103 156.149ZM193.699 166.79C191.524 166.79 189.453 166.453 187.485 165.78C185.517 165.107 183.886 164.123 182.67 162.854L184.301 160.24C185.414 161.301 186.786 162.155 188.417 162.803C190.048 163.424 191.783 163.761 193.621 163.761C196.624 163.761 198.825 163.01 200.249 161.508C201.647 160.007 202.372 157.651 202.372 154.492V148.123L202.812 143.748L202.501 139.372V131.631H205.556V154.052C205.556 158.453 204.547 161.689 202.553 163.761C200.56 165.754 197.608 166.79 193.699 166.79ZM193.44 153.094C195.174 153.094 196.728 152.706 198.074 151.903C199.42 151.1 200.508 150.013 201.284 148.589C202.061 147.191 202.449 145.56 202.449 143.696C202.449 141.858 202.061 140.227 201.284 138.829C200.508 137.431 199.446 136.343 198.074 135.541C196.728 134.738 195.174 134.35 193.44 134.35C191.731 134.35 190.178 134.738 188.806 135.541C187.433 136.343 186.372 137.431 185.595 138.829C184.818 140.227 184.456 141.832 184.456 143.696C184.456 145.534 184.844 147.165 185.595 148.589C186.372 149.987 187.433 151.1 188.806 151.903C190.178 152.706 191.705 153.094 193.44 153.094Z" fill="#FFF9E7"/>
<path d="M224.146 157.366C221.842 157.366 219.77 156.796 217.958 155.683C216.146 154.57 214.722 153.016 213.66 151.049C212.599 149.081 212.081 146.829 212.081 144.343C212.081 141.78 212.599 139.528 213.66 137.586C214.722 135.644 216.146 134.117 217.958 133.003C219.77 131.89 221.816 131.346 224.146 131.346C226.502 131.346 228.573 131.916 230.385 133.029C232.198 134.143 233.622 135.67 234.657 137.612C235.693 139.528 236.211 141.78 236.211 144.343C236.211 146.88 235.693 149.107 234.657 151.075C233.622 153.042 232.172 154.57 230.359 155.683C228.521 156.796 226.45 157.366 224.146 157.366ZM224.146 154.311C225.855 154.311 227.382 153.897 228.702 153.068C230.023 152.24 231.058 151.075 231.835 149.573C232.612 148.071 232.974 146.311 232.974 144.343C232.974 142.324 232.586 140.589 231.835 139.088C231.058 137.586 230.023 136.447 228.702 135.618C227.382 134.79 225.88 134.376 224.198 134.376C222.515 134.376 221.013 134.79 219.693 135.618C218.372 136.447 217.311 137.612 216.534 139.088C215.757 140.589 215.369 142.324 215.369 144.343C215.369 146.311 215.757 148.071 216.534 149.573C217.311 151.075 218.372 152.24 219.667 153.068C220.961 153.897 222.463 154.311 224.146 154.311Z" fill="#FFF9E7"/>
<path d="M272.353 131.347C274.269 131.347 275.951 131.735 277.375 132.538C278.799 133.34 279.913 134.531 280.715 136.162C281.518 137.793 281.906 139.839 281.906 142.298V157.133H278.696V142.635C278.696 139.942 278.1 137.923 276.909 136.525C275.718 135.127 274.036 134.453 271.887 134.453C270.256 134.453 268.858 134.816 267.667 135.541C266.476 136.266 265.57 137.327 264.922 138.699C264.275 140.072 263.964 141.729 263.964 143.67V157.081H260.754V142.583C260.754 139.89 260.159 137.871 258.942 136.473C257.751 135.101 256.042 134.402 253.893 134.402C252.288 134.402 250.89 134.764 249.699 135.489C248.508 136.214 247.576 137.275 246.929 138.648C246.281 140.02 245.971 141.677 245.971 143.619V157.03H242.76V131.502H245.815V138.415L245.324 137.198C246.048 135.36 247.214 133.91 248.819 132.848C250.424 131.787 252.34 131.269 254.514 131.269C256.819 131.269 258.786 131.89 260.417 133.133C262.048 134.376 263.084 136.266 263.576 138.751L262.307 138.208C263.006 136.136 264.223 134.453 265.984 133.185C267.77 131.994 269.893 131.347 272.353 131.347Z" fill="#FFF9E7"/>
<path d="M297.285 157.366C295.498 157.366 293.971 157.055 292.65 156.408C291.356 155.787 290.346 154.906 289.647 153.793C288.948 152.68 288.612 151.385 288.612 149.935C288.612 148.615 288.896 147.398 289.492 146.311C290.087 145.223 291.045 144.343 292.366 143.696C293.712 143.023 295.498 142.712 297.751 142.712H305.906V145.301H297.828C295.55 145.301 293.945 145.741 293.065 146.621C292.184 147.502 291.744 148.589 291.744 149.884C291.744 151.333 292.262 152.498 293.324 153.379C294.385 154.259 295.861 154.699 297.751 154.699C299.563 154.699 301.116 154.259 302.411 153.353C303.705 152.473 304.663 151.178 305.285 149.495L306.01 151.877C305.414 153.56 304.353 154.906 302.877 155.916C301.427 156.848 299.537 157.366 297.285 157.366ZM305.466 157.133V151.489L305.336 150.557V141.133C305.336 138.958 304.767 137.301 303.654 136.136C302.54 134.971 300.858 134.376 298.631 134.376C297.103 134.376 295.628 134.66 294.256 135.204C292.883 135.748 291.692 136.473 290.735 137.405L289.285 134.816C290.476 133.702 291.925 132.874 293.608 132.253C295.291 131.657 297.052 131.346 298.942 131.346C301.997 131.346 304.379 132.175 306.036 133.806C307.693 135.437 308.547 137.922 308.547 141.262V157.107H305.466V157.133Z" fill="#FFF9E7"/>
<path d="M342.437 157.418C338.398 157.418 335.239 156.175 332.909 153.664C330.605 151.178 329.44 147.476 329.44 142.583V123.088H332.78V142.427C332.78 146.44 333.608 149.418 335.317 151.334C337 153.249 339.381 154.207 342.437 154.207C345.543 154.207 347.925 153.249 349.608 151.334C351.291 149.418 352.145 146.466 352.145 142.427V123.088H355.381V142.583C355.381 147.476 354.242 151.178 351.938 153.664C349.634 156.175 346.475 157.418 342.437 157.418Z" fill="#FFF9E7"/>
<path d="M376.845 131.346C378.76 131.346 380.469 131.735 381.919 132.537C383.369 133.34 384.508 134.531 385.336 136.162C386.165 137.793 386.579 139.838 386.579 142.298V157.133H383.369V142.634C383.369 139.942 382.747 137.922 381.505 136.524C380.262 135.152 378.502 134.453 376.249 134.453C374.566 134.453 373.09 134.816 371.848 135.541C370.605 136.266 369.647 137.327 368.948 138.699C368.275 140.071 367.938 141.728 367.938 143.67V157.081H364.728V131.554H367.783V138.544L367.291 137.223C368.042 135.385 369.233 133.935 370.89 132.874C372.547 131.812 374.566 131.346 376.845 131.346Z" fill="#FFF9E7"/>
<path d="M396.858 125.962C396.185 125.962 395.641 125.729 395.201 125.237C394.761 124.745 394.528 124.175 394.528 123.476C394.528 122.803 394.761 122.234 395.201 121.742C395.641 121.276 396.21 121.043 396.858 121.043C397.505 121.043 398.075 121.276 398.515 121.716C398.955 122.156 399.188 122.726 399.188 123.425C399.188 124.15 398.981 124.745 398.541 125.211C398.126 125.703 397.557 125.962 396.858 125.962ZM395.253 157.133V131.606H398.463V157.133H395.253Z" fill="#FFF9E7"/>
<path d="M413.453 157.132L402.942 131.605H406.281L415.938 155.294H414.359L424.146 131.605H427.304L416.741 157.132H413.453Z" fill="#FFF9E7"/>
<path d="M441.88 157.366C439.421 157.366 437.246 156.797 435.382 155.684C433.518 154.57 432.068 153.017 431.007 151.075C429.945 149.107 429.427 146.881 429.427 144.344C429.427 141.806 429.919 139.58 430.929 137.638C431.939 135.696 433.311 134.169 435.071 133.056C436.832 131.942 438.799 131.373 441 131.373C443.227 131.373 445.194 131.917 446.929 133.004C448.664 134.091 450.01 135.619 451.02 137.586C452.003 139.554 452.495 141.807 452.495 144.37C452.495 144.525 452.495 144.706 452.469 144.887C452.443 145.069 452.443 145.25 452.443 145.457H431.835V142.868H450.735L449.466 143.878C449.466 142.04 449.104 140.383 448.353 138.933C447.628 137.483 446.618 136.37 445.35 135.541C444.081 134.739 442.631 134.324 440.974 134.324C439.343 134.324 437.893 134.739 436.599 135.541C435.304 136.344 434.295 137.483 433.57 138.933C432.845 140.383 432.482 142.065 432.482 143.929V144.473C432.482 146.415 432.871 148.124 433.673 149.599C434.476 151.075 435.589 152.214 437.013 153.043C438.437 153.871 440.068 154.285 441.906 154.285C443.356 154.285 444.702 154.001 445.945 153.457C447.188 152.913 448.275 152.059 449.181 150.92L450.994 153.146C449.932 154.518 448.612 155.554 447.058 156.253C445.505 156.952 443.77 157.366 441.88 157.366Z" fill="#FFF9E7"/>
<path d="M459.071 157.133V131.606H462.126V138.57L461.816 137.353C462.463 135.412 463.602 133.936 465.155 132.9C466.709 131.891 468.651 131.373 470.981 131.373V134.739C470.851 134.739 470.748 134.739 470.618 134.713C470.489 134.687 470.385 134.687 470.256 134.687C467.77 134.687 465.803 135.515 464.405 137.146C462.981 138.777 462.282 141.107 462.282 144.111V157.133H459.071Z" fill="#FFF9E7"/>
<path d="M483.511 157.366C481.569 157.366 479.705 157.055 477.971 156.46C476.236 155.864 474.864 155.113 473.88 154.207L475.33 151.489C476.288 152.266 477.531 152.939 479.032 153.508C480.534 154.078 482.113 154.363 483.77 154.363C486.023 154.363 487.654 153.974 488.637 153.223C489.621 152.473 490.113 151.437 490.113 150.194C490.113 149.262 489.828 148.511 489.285 147.994C488.741 147.45 487.99 147.062 487.11 146.777C486.23 146.492 485.194 146.259 484.081 146.078C482.968 145.897 481.854 145.664 480.767 145.405C479.679 145.146 478.67 144.757 477.764 144.266C476.857 143.774 476.133 143.075 475.589 142.194C475.019 141.314 474.76 140.149 474.76 138.699C474.76 137.301 475.123 136.058 475.848 134.945C476.573 133.832 477.634 132.977 479.032 132.356C480.43 131.735 482.139 131.398 484.158 131.398C485.686 131.398 487.213 131.605 488.767 132.045C490.294 132.486 491.563 133.055 492.547 133.78L491.149 136.55C490.087 135.774 488.974 135.204 487.757 134.867C486.566 134.531 485.349 134.35 484.158 134.35C482.01 134.35 480.456 134.738 479.446 135.541C478.437 136.343 477.945 137.353 477.945 138.57C477.945 139.554 478.23 140.304 478.773 140.848C479.317 141.392 480.068 141.832 480.974 142.143C481.88 142.453 482.89 142.712 484.003 142.893C485.09 143.075 486.204 143.333 487.291 143.592C488.378 143.877 489.388 144.24 490.32 144.706C491.226 145.172 491.977 145.845 492.521 146.699C493.065 147.554 493.349 148.693 493.349 150.065C493.349 151.566 492.961 152.835 492.21 153.922C491.433 155.01 490.32 155.864 488.87 156.46C487.343 157.055 485.582 157.366 483.511 157.366Z" fill="#FFF9E7"/>
<path d="M500.78 125.962C500.107 125.962 499.563 125.729 499.123 125.237C498.683 124.745 498.45 124.175 498.45 123.476C498.45 122.803 498.683 122.234 499.123 121.742C499.563 121.276 500.133 121.043 500.78 121.043C501.427 121.043 501.997 121.276 502.437 121.716C502.877 122.156 503.11 122.726 503.11 123.425C503.11 124.15 502.903 124.745 502.463 125.211C502.023 125.703 501.453 125.962 500.78 125.962ZM499.149 157.133V131.606H502.359V157.133H499.149Z" fill="#FFF9E7"/>
<path d="M507.589 134.453V131.579H522.243V134.453H507.589ZM518.773 157.365C516.547 157.365 514.838 156.718 513.621 155.423C512.43 154.129 511.809 152.291 511.809 149.935V125.961H515.019V149.728C515.019 151.229 515.382 152.368 516.081 153.171C516.78 153.974 517.79 154.388 519.136 154.388C520.534 154.388 521.725 153.948 522.657 153.067L523.796 155.553C523.175 156.174 522.398 156.614 521.518 156.925C520.612 157.21 519.705 157.365 518.773 157.365Z" fill="#FFF9E7"/>
<path d="M529.776 166.79C528.663 166.79 527.602 166.583 526.592 166.194C525.582 165.806 524.728 165.211 524.003 164.434L525.505 161.845C526.1 162.466 526.747 162.932 527.472 163.269C528.171 163.605 528.974 163.787 529.828 163.787C530.89 163.787 531.796 163.476 532.547 162.829C533.297 162.182 534.048 161.094 534.721 159.489L536.249 155.735L536.611 155.191L546.346 131.502H549.505L537.647 160.085C536.974 161.741 536.249 163.062 535.472 164.02C534.67 165.004 533.815 165.677 532.883 166.091C531.951 166.583 530.916 166.79 529.776 166.79ZM536.094 157.858L525.168 131.606H528.508L538.165 155.036L536.094 157.858Z" fill="#FFF9E7"/>
<path d="M153.518 215.748C151.136 215.748 148.961 215.308 146.942 214.454C144.922 213.599 143.188 212.382 141.712 210.829C140.236 209.276 139.097 207.437 138.269 205.34C137.44 203.243 137.026 200.939 137.026 198.428C137.026 195.916 137.44 193.638 138.269 191.515C139.097 189.418 140.262 187.58 141.738 186.026C143.214 184.473 144.974 183.256 146.993 182.402C149.013 181.548 151.214 181.107 153.57 181.107C155.848 181.107 157.997 181.522 160.016 182.35C162.036 183.179 163.718 184.421 165.116 186.078L162.994 188.357C161.699 186.933 160.275 185.897 158.722 185.276C157.168 184.654 155.485 184.318 153.673 184.318C151.783 184.318 150.023 184.654 148.392 185.353C146.76 186.052 145.362 187.036 144.146 188.331C142.955 189.599 141.997 191.101 141.324 192.81C140.65 194.518 140.314 196.383 140.314 198.428C140.314 200.473 140.65 202.337 141.324 204.046C141.997 205.755 142.929 207.23 144.146 208.525C145.362 209.819 146.76 210.803 148.392 211.502C150.023 212.201 151.783 212.538 153.673 212.538C155.485 212.538 157.168 212.227 158.722 211.554C160.275 210.907 161.725 209.871 162.994 208.447L165.116 210.726C163.718 212.383 162.036 213.625 160.016 214.48C157.997 215.334 155.822 215.748 153.518 215.748Z" fill="#FFF9E7"/>
<path d="M181.22 215.696C178.916 215.696 176.845 215.127 175.032 214.013C173.22 212.9 171.796 211.347 170.735 209.379C169.673 207.411 169.155 205.159 169.155 202.673C169.155 200.11 169.673 197.858 170.735 195.916C171.796 193.975 173.22 192.447 175.032 191.334C176.845 190.246 178.89 189.677 181.22 189.677C183.576 189.677 185.647 190.246 187.46 191.36C189.272 192.473 190.696 194 191.731 195.916C192.767 197.858 193.285 200.084 193.285 202.648C193.285 205.185 192.767 207.411 191.731 209.379C190.696 211.347 189.246 212.874 187.434 213.987C185.595 215.152 183.524 215.696 181.22 215.696ZM181.22 212.641C182.929 212.641 184.456 212.227 185.777 211.398C187.097 210.57 188.133 209.405 188.909 207.903C189.686 206.402 190.048 204.667 190.048 202.673C190.048 200.654 189.66 198.919 188.909 197.418C188.133 195.916 187.097 194.777 185.777 193.949C184.456 193.12 182.955 192.706 181.272 192.706C179.589 192.706 178.087 193.12 176.767 193.949C175.447 194.777 174.385 195.942 173.608 197.418C172.832 198.919 172.443 200.654 172.443 202.673C172.443 204.641 172.832 206.402 173.608 207.903C174.385 209.405 175.447 210.57 176.741 211.398C178.036 212.227 179.511 212.641 181.22 212.641Z" fill="#FFF9E7"/>
<path d="M229.427 189.703C231.343 189.703 233.026 190.091 234.45 190.894C235.874 191.696 236.987 192.887 237.79 194.518C238.592 196.149 238.981 198.195 238.981 200.654V215.489H235.77V200.991C235.77 198.298 235.175 196.253 233.984 194.881C232.793 193.508 231.11 192.809 228.961 192.809C227.33 192.809 225.932 193.172 224.741 193.897C223.55 194.622 222.644 195.683 221.997 197.055C221.35 198.428 221.039 200.085 221.039 202.026V215.437H217.829V200.939C217.829 198.246 217.233 196.201 216.016 194.829C214.825 193.457 213.117 192.758 210.968 192.758C209.363 192.758 207.964 193.12 206.773 193.845C205.583 194.57 204.651 195.631 204.003 197.004C203.356 198.376 203.045 200.033 203.045 201.975V215.386H199.835V189.858H202.89V196.771L202.398 195.554C203.123 193.716 204.288 192.266 205.893 191.204C207.498 190.143 209.414 189.625 211.589 189.625C213.893 189.625 215.861 190.246 217.492 191.489C219.123 192.732 220.159 194.622 220.651 197.107L219.382 196.564C220.081 194.492 221.298 192.81 223.058 191.541C224.845 190.324 226.942 189.703 229.427 189.703Z" fill="#FFF9E7"/>
<path d="M247.679 224.887V189.936H250.734V197.625L250.424 202.725L250.864 207.877V224.887H247.679ZM259.9 215.696C257.854 215.696 256.016 215.178 254.359 214.169C252.702 213.159 251.382 211.683 250.424 209.742C249.44 207.8 248.948 205.444 248.948 202.674C248.948 199.877 249.44 197.521 250.398 195.606C251.356 193.664 252.676 192.214 254.333 191.204C255.99 190.195 257.854 189.703 259.925 189.703C262.178 189.703 264.197 190.246 265.984 191.334C267.77 192.421 269.168 193.949 270.204 195.89C271.213 197.858 271.731 200.11 271.731 202.674C271.731 205.263 271.213 207.541 270.204 209.483C269.168 211.424 267.77 212.952 265.984 214.039C264.171 215.153 262.152 215.696 259.9 215.696ZM259.667 212.641C261.349 212.641 262.851 212.227 264.171 211.398C265.492 210.57 266.553 209.405 267.33 207.903C268.107 206.402 268.495 204.667 268.495 202.674C268.495 200.68 268.107 198.971 267.33 197.47C266.553 195.968 265.492 194.803 264.171 193.975C262.851 193.12 261.349 192.706 259.667 192.706C257.984 192.706 256.482 193.12 255.136 193.975C253.789 194.829 252.754 195.994 251.977 197.47C251.2 198.971 250.838 200.706 250.838 202.674C250.838 204.641 251.226 206.402 251.977 207.903C252.728 209.405 253.789 210.57 255.136 211.398C256.482 212.227 257.984 212.641 259.667 212.641Z" fill="#FFF9E7"/>
<path d="M288.042 215.697C286.022 215.697 284.262 215.282 282.76 214.48C281.259 213.677 280.094 212.46 279.265 210.829C278.437 209.198 278.022 207.179 278.022 204.745V189.91H281.233V204.383C281.233 207.101 281.854 209.146 283.097 210.544C284.34 211.917 286.1 212.616 288.353 212.616C290.009 212.616 291.433 212.253 292.65 211.528C293.867 210.803 294.799 209.742 295.446 208.344C296.094 206.946 296.43 205.289 296.43 203.347V189.988H299.641V215.515H296.586V208.525L297.077 209.794C296.327 211.684 295.162 213.133 293.582 214.195C292.003 215.179 290.139 215.697 288.042 215.697Z" fill="#FFF9E7"/>
<path d="M304.87 192.809V189.935H319.524V192.809H304.87ZM316.055 215.696C313.828 215.696 312.119 215.048 310.902 213.754C309.712 212.459 309.09 210.621 309.09 208.265V184.291H312.301V208.058C312.301 209.56 312.663 210.699 313.362 211.501C314.061 212.304 315.071 212.718 316.417 212.718C317.841 212.718 319.006 212.278 319.938 211.398L321.077 213.883C320.456 214.505 319.679 214.945 318.799 215.255C317.919 215.566 316.987 215.696 316.055 215.696Z" fill="#FFF9E7"/>
<path d="M336.923 215.696C334.463 215.696 332.288 215.127 330.424 214.013C328.56 212.9 327.11 211.347 326.049 209.405C324.987 207.437 324.469 205.211 324.469 202.674C324.469 200.136 324.961 197.91 325.971 195.968C326.981 194.026 328.353 192.499 330.113 191.386C331.874 190.272 333.842 189.703 336.042 189.703C338.269 189.703 340.236 190.246 341.971 191.334C343.706 192.421 345.052 193.949 346.062 195.89C347.046 197.858 347.563 200.11 347.563 202.674C347.563 202.829 347.563 203.01 347.537 203.191C347.512 203.373 347.512 203.554 347.512 203.761H326.903V201.172H345.803L344.534 202.182C344.534 200.343 344.172 198.686 343.421 197.237C342.67 195.787 341.686 194.674 340.418 193.845C339.149 193.042 337.699 192.628 336.042 192.628C334.411 192.628 332.961 193.042 331.667 193.845C330.372 194.648 329.363 195.787 328.638 197.237C327.913 198.686 327.55 200.369 327.55 202.233V202.777C327.55 204.719 327.939 206.428 328.741 207.903C329.544 209.379 330.657 210.518 332.081 211.347C333.505 212.175 335.136 212.589 336.974 212.589C338.424 212.589 339.77 212.305 341.013 211.761C342.256 211.217 343.343 210.363 344.249 209.224L346.062 211.45C345 212.822 343.706 213.858 342.126 214.557C340.573 215.36 338.838 215.696 336.923 215.696Z" fill="#FFF9E7"/>
<path d="M354.113 215.463V189.936H357.168V196.874L356.858 195.657C357.531 193.716 358.644 192.24 360.197 191.204C361.751 190.169 363.693 189.677 366.023 189.677V193.042C365.893 193.042 365.79 193.042 365.66 193.017C365.531 192.991 365.427 192.991 365.298 192.991C362.812 192.991 360.845 193.819 359.447 195.45C358.023 197.081 357.324 199.411 357.324 202.44V215.463H354.113Z" fill="#FFF9E7"/>
<path d="M393.388 215.748C391.032 215.748 388.806 215.333 386.657 214.505C384.508 213.677 382.851 212.615 381.686 211.32L383.006 208.55C384.12 209.715 385.621 210.699 387.485 211.502C389.375 212.304 391.343 212.693 393.414 212.693C395.408 212.693 397.013 212.434 398.256 211.89C399.498 211.346 400.43 210.621 401 209.715C401.57 208.809 401.88 207.799 401.88 206.712C401.88 205.392 401.518 204.304 400.819 203.502C400.12 202.699 399.188 202.052 398.048 201.586C396.909 201.12 395.641 200.706 394.269 200.343C392.896 199.981 391.498 199.592 390.126 199.204C388.754 198.816 387.459 198.246 386.32 197.573C385.155 196.9 384.223 195.994 383.524 194.88C382.825 193.767 382.463 192.291 382.463 190.479C382.463 188.796 382.877 187.243 383.705 185.845C384.534 184.447 385.803 183.308 387.511 182.453C389.22 181.599 391.421 181.159 394.087 181.159C395.848 181.159 397.608 181.418 399.369 181.961C401.103 182.505 402.605 183.23 403.874 184.162L402.735 187.036C401.388 186.052 399.938 185.353 398.437 184.887C396.909 184.421 395.459 184.214 394.036 184.214C392.146 184.214 390.566 184.498 389.349 185.042C388.107 185.586 387.201 186.337 386.631 187.243C386.035 188.175 385.751 189.21 385.751 190.376C385.751 191.696 386.113 192.783 386.812 193.586C387.511 194.388 388.443 195.036 389.608 195.476C390.773 195.916 392.042 196.33 393.414 196.693C394.786 197.055 396.184 197.444 397.531 197.858C398.877 198.272 400.171 198.816 401.311 199.489C402.476 200.162 403.408 201.042 404.107 202.13C404.806 203.243 405.168 204.667 405.168 206.453C405.168 208.11 404.754 209.638 403.9 211.036C403.045 212.434 401.777 213.573 400.042 214.427C398.307 215.282 396.107 215.748 393.388 215.748Z" fill="#FFF9E7"/>
<path d="M421.401 215.696C419.097 215.696 417.026 215.127 415.213 214.013C413.401 212.9 411.977 211.347 410.942 209.379C409.88 207.411 409.362 205.159 409.362 202.673C409.362 200.11 409.88 197.858 410.942 195.916C412.003 193.975 413.427 192.447 415.213 191.334C417.026 190.246 419.071 189.677 421.401 189.677C423.757 189.677 425.828 190.246 427.641 191.36C429.453 192.473 430.877 194 431.913 195.916C432.948 197.858 433.466 200.084 433.466 202.648C433.466 205.185 432.948 207.411 431.913 209.379C430.877 211.347 429.427 212.874 427.615 213.987C425.777 215.152 423.705 215.696 421.401 215.696ZM421.401 212.641C423.11 212.641 424.637 212.227 425.958 211.398C427.278 210.57 428.314 209.405 429.091 207.903C429.867 206.402 430.23 204.667 430.23 202.673C430.23 200.654 429.841 198.919 429.091 197.418C428.314 195.916 427.278 194.777 425.958 193.949C424.637 193.12 423.136 192.706 421.453 192.706C419.77 192.706 418.269 193.12 416.948 193.949C415.628 194.777 414.566 195.942 413.79 197.418C413.013 198.919 412.624 200.654 412.624 202.673C412.624 204.641 413.013 206.402 413.79 207.903C414.566 209.405 415.628 210.57 416.922 211.398C418.217 212.227 419.718 212.641 421.401 212.641Z" fill="#FFF9E7"/>
<path d="M449.854 215.696C447.498 215.696 445.401 215.127 443.563 214.013C441.725 212.9 440.275 211.347 439.214 209.405C438.152 207.437 437.634 205.211 437.634 202.673C437.634 200.11 438.152 197.858 439.214 195.916C440.275 193.975 441.725 192.447 443.563 191.334C445.401 190.246 447.498 189.677 449.854 189.677C451.874 189.677 453.686 190.091 455.317 190.945C456.948 191.8 458.217 193.042 459.149 194.725L456.767 196.486C455.964 195.191 454.955 194.233 453.738 193.612C452.547 192.991 451.226 192.68 449.828 192.68C448.146 192.68 446.618 193.094 445.272 193.923C443.926 194.751 442.864 195.916 442.061 197.392C441.285 198.894 440.896 200.628 440.896 202.648C440.896 204.667 441.285 206.402 442.061 207.903C442.838 209.405 443.9 210.544 445.272 211.373C446.644 212.201 448.146 212.615 449.828 212.615C451.226 212.615 452.547 212.305 453.738 211.683C454.929 211.062 455.939 210.13 456.767 208.861L459.149 210.622C458.217 212.279 456.948 213.521 455.317 214.402C453.686 215.282 451.874 215.696 449.854 215.696Z" fill="#FFF9E7"/>
<path d="M467.045 184.292C466.372 184.292 465.828 184.059 465.388 183.567C464.948 183.075 464.715 182.506 464.715 181.807C464.715 181.108 464.948 180.564 465.388 180.072C465.828 179.58 466.398 179.373 467.045 179.373C467.692 179.373 468.262 179.606 468.702 180.046C469.142 180.512 469.375 181.056 469.375 181.755C469.375 182.48 469.168 183.075 468.728 183.541C468.288 184.059 467.718 184.292 467.045 184.292ZM465.414 215.464V189.936H468.624V215.464H465.414Z" fill="#FFF9E7"/>
<path d="M487.602 215.696C485.143 215.696 482.968 215.127 481.104 214.013C479.24 212.9 477.79 211.347 476.728 209.405C475.667 207.437 475.149 205.211 475.149 202.674C475.149 200.136 475.641 197.91 476.651 195.968C477.661 194.026 479.033 192.499 480.793 191.386C482.554 190.272 484.521 189.703 486.722 189.703C488.949 189.703 490.916 190.246 492.651 191.334C494.385 192.421 495.732 193.949 496.741 195.89C497.725 197.858 498.217 200.11 498.217 202.674C498.217 202.829 498.217 203.01 498.191 203.191C498.165 203.373 498.165 203.554 498.165 203.761H477.557V201.172H496.457L495.188 202.182C495.188 200.343 494.826 198.686 494.075 197.237C493.35 195.787 492.34 194.674 491.072 193.845C489.803 193.042 488.353 192.628 486.696 192.628C485.065 192.628 483.615 193.042 482.321 193.845C481.026 194.648 480.016 195.787 479.292 197.237C478.567 198.686 478.204 200.369 478.204 202.233V202.777C478.204 204.719 478.593 206.428 479.395 207.903C480.198 209.379 481.311 210.518 482.735 211.347C484.159 212.175 485.79 212.589 487.628 212.589C489.078 212.589 490.424 212.305 491.667 211.761C492.91 211.217 493.997 210.363 494.903 209.224L496.716 211.45C495.654 212.822 494.334 213.858 492.78 214.557C491.227 215.256 489.492 215.696 487.602 215.696Z" fill="#FFF9E7"/>
<path d="M501.091 192.809V189.935H515.745V192.809H501.091ZM512.275 215.696C510.049 215.696 508.34 215.048 507.123 213.754C505.932 212.459 505.311 210.621 505.311 208.265V184.291H508.521V208.058C508.521 209.56 508.884 210.699 509.583 211.501C510.282 212.304 511.291 212.718 512.638 212.718C514.036 212.718 515.227 212.278 516.159 211.398L517.298 213.883C516.677 214.505 515.9 214.945 515.02 215.255C514.139 215.566 513.207 215.696 512.275 215.696Z" fill="#FFF9E7"/>
<path d="M523.278 225.146C522.165 225.146 521.104 224.939 520.094 224.551C519.084 224.163 518.23 223.567 517.505 222.79L519.006 220.201C519.602 220.823 520.249 221.289 520.974 221.625C521.673 221.962 522.476 222.143 523.33 222.143C524.392 222.143 525.298 221.832 526.049 221.185C526.799 220.538 527.55 219.451 528.223 217.845L529.751 214.091L530.113 213.548L539.848 189.884H543.007L531.149 218.467C530.476 220.124 529.751 221.444 528.974 222.402C528.172 223.386 527.317 224.059 526.385 224.473C525.453 224.939 524.417 225.146 523.278 225.146ZM529.595 216.188L518.67 189.936H522.01L531.667 213.367L529.595 216.188Z" fill="#FFF9E7"/>
<path d="M0.611328 85.3394L37.7116 1.84424H56.7925L94.2553 85.3394H73.9835L43.3298 11.6048H51.0968L20.443 85.3394H0.611328ZM19.3297 67.4494L24.223 52.7698H67.4074L72.4042 67.4494H19.3297Z" fill="#FFF9E7"/>
<path d="M102.955 85.3394V1.84424H122.398V69.5983H164.029V85.3394H102.955Z" fill="#FFF9E7"/>
<path d="M215.11 86.7647C208.664 86.7647 202.683 85.7032 197.169 83.6061C191.628 81.509 186.839 78.5058 182.8 74.5964C178.735 70.7129 175.576 66.1304 173.324 60.8747C171.046 55.6191 169.932 49.8715 169.932 43.5803C169.932 37.289 171.072 31.5414 173.324 26.2857C175.602 21.0301 178.761 16.4735 182.877 12.5641C186.968 8.68057 191.783 5.67731 197.324 3.55433C202.838 1.45724 208.845 0.395752 215.266 0.395752C222.489 0.395752 229.065 1.6385 234.942 4.14983C240.819 6.66115 245.764 10.3376 249.725 15.179L237.194 26.6223C234.398 23.3602 231.24 20.9007 227.719 19.2178C224.172 17.535 220.34 16.7065 216.198 16.7065C212.288 16.7065 208.716 17.3537 205.453 18.6741C202.191 19.9944 199.369 21.8327 196.987 24.2146C194.605 26.5964 192.741 29.4184 191.447 32.6805C190.127 35.9427 189.479 39.5673 189.479 43.5284C189.479 47.5155 190.127 51.1142 191.447 54.3763C192.767 57.6385 194.605 60.4605 196.987 62.8423C199.369 65.2242 202.191 67.0883 205.453 68.3828C208.716 69.6773 212.288 70.3505 216.198 70.3505C220.34 70.3505 224.172 69.4961 227.719 67.7873C231.266 66.0786 234.424 63.5931 237.194 60.331L249.725 71.7744C245.738 76.6158 240.819 80.3181 234.942 82.8812C229.013 85.4961 222.411 86.7647 215.11 86.7647Z" fill="#FFF9E7"/>
<path d="M363.744 85.3394V1.84424H379.718L415.265 60.7698H406.799L441.621 1.84424H457.725V85.3394H439.705L439.472 29.6242H443.045L414.903 76.3815H406.307L377.802 29.6242H381.737V85.3394H363.744Z" fill="#FFF9E7"/>
<path d="M505.077 86.7637C498.398 86.7637 491.977 85.8576 485.815 84.0711C479.653 82.2847 474.708 79.9546 470.954 77.0808L477.505 62.5307C481 65.0679 485.22 67.165 490.139 68.7961C495.058 70.4271 500.055 71.2297 505.051 71.2297C508.857 71.2297 511.964 70.8413 514.294 70.0387C516.65 69.2362 518.359 68.2006 519.472 66.8802C520.585 65.5599 521.155 64.0323 521.155 62.2977C521.155 60.0711 520.275 58.3106 518.54 56.9903C516.78 55.6699 514.475 54.6083 511.55 53.7798C508.65 52.9514 505.492 52.1488 502.074 51.398C498.657 50.6472 495.213 49.7152 491.744 48.6537C488.275 47.5922 485.116 46.1423 482.191 44.3559C479.291 42.5695 476.987 40.2135 475.278 37.3139C473.569 34.4142 472.715 30.7637 472.715 26.3883C472.715 21.6245 473.983 17.275 476.521 13.3139C479.058 9.37861 482.941 6.24588 488.145 3.88989C493.349 1.53391 499.899 0.368896 507.77 0.368896C513.026 0.368896 518.204 1.01612 523.33 2.28473C528.456 3.55334 532.935 5.39151 536.741 7.77339L530.657 22.3235C526.928 20.1747 523.071 18.5695 519.084 17.4821C515.097 16.3948 511.291 15.877 507.64 15.877C503.835 15.877 500.754 16.2912 498.449 17.1197C496.145 17.9482 494.462 19.0873 493.375 20.5113C492.288 21.9352 491.77 23.5404 491.77 25.275C491.77 27.5016 492.65 29.288 494.385 30.6343C496.145 31.9806 498.449 33.042 501.297 33.7928C504.171 34.5436 507.33 35.2944 510.851 36.0711C514.372 36.8478 517.815 37.754 521.233 38.8673C524.65 39.9805 527.783 41.4045 530.657 43.1132C533.53 44.8219 535.835 47.1262 537.647 50.0258C539.433 52.9255 540.34 56.5242 540.34 60.8219C540.34 65.508 539.045 69.8058 536.456 73.7152C533.867 77.6245 529.958 80.7573 524.702 83.1391C519.524 85.5728 512.974 86.7637 505.077 86.7637Z" fill="#FFF9E7"/>
<path d="M345.284 27.5794C344.559 14.2461 326.411 2.90625 305.543 2.90625C284.676 2.90625 266.527 14.1943 265.802 27.5794C265.155 40.136 265.155 46.2978 265.802 58.8027C266.527 72.136 284.676 83.4758 305.543 83.4758C326.411 83.4758 344.559 72.1878 345.284 58.8027C346.009 46.1943 346.009 40.0842 345.284 27.5794ZM342.022 58.725C341.375 70.971 324.754 81.2493 305.647 81.2493C286.54 81.2493 269.893 70.9451 269.271 58.725C268.624 46.5308 268.624 40.1619 269.271 27.6571C269.919 15.1522 286.54 5.13283 305.647 5.13283C324.754 5.13283 341.401 15.437 342.022 27.6571C342.669 39.8512 342.669 46.1943 342.022 58.725ZM307.304 22.8156V38.4532C307.459 39.0746 306.838 39.6441 305.957 39.7477C305.077 39.8513 304.119 39.437 303.964 38.8675C303.886 38.7639 303.886 38.5568 303.964 38.4532V22.8156C303.809 22.1943 304.43 21.6247 305.31 21.5211C306.19 21.4176 307.148 21.8318 307.304 22.4014C307.381 22.505 307.381 22.6603 307.304 22.8156Z" fill="#FFF9E7" stroke="#FFF9E7" stroke-width="2" stroke-miterlimit="10"/>
<path d="M119.421 115.372V225.145" stroke="#FFF9E7" stroke-miterlimit="10"/>
<path d="M5.17859 116.424C3.6226 117.211 2.41097 118.64 1.96308 120.173C1.75078 120.96 1.68604 126.412 1.68604 149.268C1.68604 175.808 1.70674 177.446 2.0692 178.49C2.57923 179.96 3.87891 181.387 5.37017 182.112L6.58446 182.707L23.0272 182.772L39.4699 182.837L39.3637 184.584C39.1721 187.694 38.8537 190.974 38.6181 192.551L38.3618 194.107H34.5922C30.9288 194.107 30.8226 194.127 30.3747 194.596C29.7352 195.277 29.756 196.32 30.4394 196.98L30.9495 197.514H50.354H69.7586L70.2686 196.98C70.9702 196.299 70.9935 195.212 70.31 194.573C69.8414 194.125 69.6291 194.104 66.0718 194.104H62.3436L62.0873 192.548C61.8543 190.971 61.5333 187.691 61.3417 184.582L61.2355 182.834L77.6783 182.769L94.121 182.705L95.3353 182.109C96.8265 181.384 98.1262 179.958 98.6362 178.487C98.9987 177.444 99.0194 175.802 99.0194 149.265C99.0194 126.412 98.9547 120.96 98.7424 120.17C98.2945 118.637 97.0803 117.208 95.5269 116.421L94.1857 115.72H50.3515H6.51714L5.17859 116.424ZM94.0175 119.448C94.4213 119.704 94.934 120.214 95.1877 120.618C95.6149 121.364 95.6148 121.661 95.677 144.196L95.7184 167.049H93.6938H91.6692L91.6278 154.909C91.5631 141.449 91.6485 142.236 90.1366 141.98C89.4971 141.894 89.264 141.959 88.8161 142.407L88.2621 142.961V155.015V167.049H50.3489H12.4433L12.4848 146.645L12.5495 126.262H50.3566H88.1637L88.2699 131.758L88.376 137.275L88.9094 137.703C89.5048 138.192 90.6776 138.107 91.2317 137.553C91.7417 137.042 91.8505 126.456 91.3585 125.156C90.9547 124.092 90.0589 123.282 88.9508 122.964C88.4174 122.837 75.7029 122.751 50.2505 122.751C9.95272 122.772 11.4 122.73 10.2712 123.753C10.0356 123.965 9.65243 124.519 9.44013 124.988C9.05696 125.798 9.03623 126.904 9.03623 146.435V167.054H7.01162H4.98701L5.02847 144.201C5.0932 122.816 5.1139 121.325 5.47636 120.688C5.90355 119.877 6.62587 119.367 7.6071 119.132C7.96956 119.026 27.4155 118.982 50.7812 118.982C93.1035 119.023 93.2718 119.023 94.0175 119.448ZM95.6796 173.697C95.5941 177.511 95.3818 178.127 93.8051 178.938L92.868 179.406H50.354H7.84009L6.9029 178.917C5.3262 178.13 5.11391 177.511 5.02847 173.697L4.94301 170.461H50.354H95.765L95.6796 173.697ZM57.8958 184.134C57.9605 184.879 58.0666 186.391 58.1313 187.499C58.2582 189.524 58.5793 192.398 58.7916 193.506L58.9184 194.101H50.3566H41.7948L41.9217 193.506C42.134 192.398 42.455 189.524 42.5819 187.499C42.6466 186.391 42.7527 184.879 42.8175 184.134L42.9443 182.813H50.3566H57.7689L57.8958 184.134Z" fill="#FFF9E7"/>
<path d="M40.5161 136.105C39.729 136.956 25.0313 154.145 24.2003 155.209C23.5815 156.019 23.6048 156.933 24.265 157.573C24.7543 158.083 25.4792 158.233 26.1601 157.976C26.5018 157.85 43.03 138.595 43.4753 137.785C43.8792 137.083 43.7938 136.4 43.219 135.846C42.432 135.038 41.4533 135.123 40.5161 136.105Z" fill="#FFF9E7"/>
<path d="M29.14 139.639C28.7361 139.872 25.8805 142.96 24.3064 144.858C23.5815 145.754 23.5608 146.668 24.265 147.351C24.9666 148.076 25.8831 148.053 26.6934 147.287C28.0345 146.031 31.4209 142.046 31.5271 141.578C31.7394 140.767 31.4416 140.045 30.7607 139.683C30.0151 139.3 29.7381 139.3 29.14 139.639Z" fill="#FFF9E7"/>
<path d="M45.9889 173.761C45.2433 174.486 45.264 175.594 46.0096 176.19C46.543 176.594 46.8614 176.638 50.3539 176.638C53.8465 176.638 54.1675 176.596 54.6983 176.19C55.4439 175.594 55.4646 174.486 54.719 173.761C54.209 173.228 54.1649 173.228 50.3539 173.228C46.5429 173.228 46.4989 173.228 45.9889 173.761Z" fill="#FFF9E7"/>
<path d="M12.2726 202.984C11.8895 203.175 11.4002 203.579 11.1853 203.88C10.6519 204.646 5.62671 220.643 5.62671 221.581C5.62671 222.603 6.22216 223.711 7.09724 224.286L7.82217 224.775H50.3567H92.8914L93.6163 224.286C94.4888 223.711 95.0868 222.603 95.0868 221.539C95.0868 220.667 90.2092 205.096 89.6137 204.074C89.4014 203.711 88.8888 203.243 88.4849 203.03C87.7833 202.647 86.6545 202.627 59.7937 202.627H31.848L31.4209 203.181C30.8254 203.926 30.8668 204.607 31.4856 205.332L31.9956 205.927L59.4079 206.034L86.8202 206.14L89.2487 213.785C90.5898 218.003 91.6772 221.474 91.6772 221.516C91.6772 221.537 73.083 221.581 50.3567 221.581C27.6305 221.581 9.0364 221.539 9.0364 221.516C9.0364 221.474 10.1237 218.003 11.4648 213.785L13.8934 206.14L20.0707 206.034C25.7587 205.927 26.2895 205.883 26.6959 205.524C27.2914 204.97 27.3147 203.649 26.7167 203.054C26.3128 202.65 26.015 202.627 19.6461 202.627C13.9322 202.621 12.8681 202.686 12.2726 202.984Z" fill="#FFF9E7"/>
<path d="M22.0488 209.778C21.43 210.565 21.4947 211.269 22.2404 212.035C22.8799 212.654 22.942 212.675 24.5627 212.61C26.608 212.504 27.1387 212.141 27.1387 210.886C27.1387 209.521 26.6495 209.223 24.3918 209.223C22.5821 209.223 22.4527 209.247 22.0488 209.778Z" fill="#FFF9E7"/>
<path d="M30.8019 209.716C30.3333 210.205 30.2064 210.995 30.4601 211.676C30.9702 212.955 35.2316 212.955 35.7416 211.676C36.0187 210.951 35.8685 210.143 35.3792 209.695C34.952 209.291 34.6335 209.226 33.0776 209.226C31.462 209.224 31.2058 209.268 30.8019 209.716Z" fill="#FFF9E7"/>
<path d="M39.4933 209.651C38.9393 210.205 38.9393 211.354 39.4727 212.014C39.8144 212.418 40.1121 212.524 41.3885 212.589C43.1361 212.695 44.0086 212.418 44.371 211.652C44.7128 210.886 44.6687 210.417 44.1587 209.777C43.7548 209.244 43.6254 209.223 41.8157 209.223C40.1949 209.223 39.8532 209.288 39.4933 209.651Z" fill="#FFF9E7"/>
<path d="M48.2024 209.63C47.5422 210.163 47.5215 211.398 48.1817 212.058C48.6089 212.462 48.8833 212.527 50.46 212.527C52.0367 212.527 52.3137 212.462 52.7383 212.058C53.3778 211.419 53.3571 210.142 52.6969 209.609C51.9953 209.055 48.9066 209.055 48.2024 209.63Z" fill="#FFF9E7"/>
<path d="M56.7673 209.777C56.2572 210.417 56.2133 210.886 56.555 211.652C56.9175 212.418 57.79 212.695 59.5376 212.589C61.2851 212.504 61.8599 212.056 61.8599 210.8C61.8599 209.544 61.3058 209.223 59.1129 209.223C57.298 209.223 57.1712 209.247 56.7673 209.777Z" fill="#FFF9E7"/>
<path d="M65.5205 209.715C64.9458 210.334 64.9251 211.354 65.4558 212.016C65.7743 212.42 66.0953 212.527 67.2449 212.591C68.0319 212.633 68.9069 212.612 69.2047 212.55C70.5251 212.208 70.9937 210.846 70.1419 209.782C69.738 209.249 69.6086 209.228 67.8403 209.228C66.16 209.223 65.9244 209.267 65.5205 209.715Z" fill="#FFF9E7"/>
<path d="M73.9969 209.651C73.4014 210.246 73.4222 211.567 74.0177 212.121C74.3594 212.419 74.8694 212.548 76.1484 212.61C77.7665 212.675 77.8312 212.652 78.4707 212.035C79.2163 211.269 79.2811 210.565 78.6623 209.778C78.2584 209.244 78.129 209.224 76.3192 209.224C74.7011 209.224 74.3594 209.288 73.9969 209.651Z" fill="#FFF9E7"/>
<path d="M22.049 215.53C21.7927 215.848 21.6011 216.317 21.6011 216.573C21.6011 216.829 21.7927 217.298 22.049 217.616C22.4528 218.15 22.5823 218.17 24.392 218.17C26.6082 218.17 27.1389 217.852 27.1389 216.573C27.1389 215.294 26.6056 214.976 24.392 214.976C22.5823 214.976 22.4528 214.996 22.049 215.53Z" fill="#FFF9E7"/>
<path d="M30.7607 215.444C30.2067 216.04 30.2067 217.192 30.7607 217.743C31.1232 218.106 31.4624 218.17 33.1038 218.17C35.3407 218.17 35.8714 217.873 35.8714 216.573C35.8714 215.294 35.3381 214.976 33.1038 214.976C31.421 214.976 31.1439 215.038 30.7607 215.444Z" fill="#FFF9E7"/>
<path d="M39.4933 215.401C39.237 215.658 39.0662 216.103 39.0662 216.572C39.0662 217.851 39.5995 218.169 41.8131 218.169C43.6228 218.169 43.7522 218.148 44.1561 217.615C44.4124 217.296 44.604 216.828 44.604 216.572C44.604 216.315 44.4124 215.847 44.1561 215.528C43.7522 214.995 43.6228 214.974 41.8131 214.974C40.1949 214.977 39.8532 215.039 39.4933 215.401Z" fill="#FFF9E7"/>
<path d="M48.1197 215.401C47.8841 215.658 47.7158 216.168 47.7158 216.572C47.7158 217.871 48.2259 218.169 50.4628 218.169C52.7204 218.169 53.1683 217.913 53.1683 216.572C53.1683 215.23 52.7204 214.974 50.4628 214.974C48.7566 214.977 48.4589 215.039 48.1197 215.401Z" fill="#FFF9E7"/>
<path d="M56.7672 215.53C56.5109 215.848 56.3193 216.317 56.3193 216.573C56.3193 216.829 56.5109 217.298 56.7672 217.616C57.1711 218.15 57.3006 218.17 59.1103 218.17C61.3265 218.17 61.8572 217.852 61.8572 216.573C61.8572 215.294 61.3239 214.976 59.1103 214.976C57.298 214.976 57.1711 214.996 56.7672 215.53Z" fill="#FFF9E7"/>
<path d="M65.4763 215.401C65.22 215.658 65.0491 216.103 65.0491 216.572C65.0491 217.851 65.5825 218.169 67.8193 218.169C69.5022 218.169 69.7792 218.104 70.1623 217.7C70.3954 217.444 70.5896 216.955 70.5896 216.572C70.5896 216.188 70.3979 215.699 70.1623 215.443C69.7792 215.039 69.5022 214.974 67.8193 214.974C66.1805 214.977 65.8388 215.039 65.4763 215.401Z" fill="#FFF9E7"/>
<path d="M73.9967 215.401C73.7404 215.658 73.5696 216.103 73.5696 216.572C73.5696 217.851 74.1029 218.169 76.3165 218.169C78.1262 218.169 78.2556 218.148 78.6595 217.615C78.9158 217.296 79.1074 216.828 79.1074 216.572C79.1074 216.315 78.9158 215.847 78.6595 215.528C78.2556 214.995 78.1262 214.974 76.3165 214.974C74.7009 214.977 74.3592 215.039 73.9967 215.401Z" fill="#FFF9E7"/>
</svg>
