<svg width="593" height="322" viewBox="0 0 593 322" fill="none" xmlns="http://www.w3.org/2000/svg">
<g clip-path="url(#clip0_629_295)">
<path d="M270.43 243.841C253.751 240.949 241.802 232.551 234.751 218.562C232.372 213.841 230.738 208.28 230.688 203.086C230.335 166.64 230.675 130.189 230.311 93.7435C230.241 86.7011 238.723 78.3787 246.705 79.5936C246.705 81.51 246.705 83.4992 246.705 85.4885C246.705 123.219 246.592 160.95 246.765 198.68C246.827 212.233 254.525 223.215 267.068 226.6C270.144 227.43 273.332 228.384 276.474 228.404C288.03 228.479 299.59 228.226 311.146 228.021C325.613 227.764 338.49 215.107 338.307 200.187C338.301 199.678 338.583 199.166 338.907 198.041C343.383 198.041 347.995 197.763 352.52 198.235C353.67 198.355 355.214 200.772 355.438 202.285C357.151 213.865 361.976 223.097 374.783 226.658C377.501 227.414 380.307 228.431 383.065 228.413C397.11 228.322 411.219 228.633 425.176 227.442C438.644 226.293 448.429 214.528 448.302 201.794C448.256 197.215 448.244 192.636 448.259 188.057C448.328 166.754 432.942 154.803 411.092 159.407C402.001 161.323 393.008 163.662 383.987 165.87C372.221 168.749 361.616 163.912 360.11 152.699C358.577 141.286 358.791 129.346 360.517 117.947C362.16 107.106 373.179 100.165 384.685 100.099C396.266 100.032 407.85 100.186 419.43 100.059C434.036 99.8996 447.131 110.862 444.621 129.118C444.486 130.1 442.882 131.553 441.844 131.65C438.402 131.973 434.809 132.224 431.478 131.569C430.007 131.279 428.12 128.821 427.973 127.219C427.088 117.615 425.924 116.413 415.849 116.413C405.811 116.412 395.773 116.365 385.736 116.429C379.003 116.472 376.342 119.007 376.312 125.302C376.274 133.177 376.316 141.053 376.341 148.928C376.342 149.276 376.512 149.623 376.811 150.766C384.65 149.07 392.565 147.57 400.356 145.624C414.004 142.217 427.478 140.007 440.661 147.216C456.282 155.759 465.026 168.204 465.624 185.57C465.939 194.736 463.989 204.109 468.831 212.883C474.298 222.788 482.861 228.152 494.442 228.577C505.813 228.994 517.222 228.9 528.602 228.604C544.769 228.183 557.125 215.797 557.13 200.412C557.142 162.498 557.133 124.585 557.132 86.6708C557.132 84.6974 557.132 82.7241 557.132 80.4995C562.591 80.4995 567.546 80.4995 573.318 80.4995C573.318 82.2591 573.318 84.1827 573.318 86.1062C573.318 124.386 572.799 162.676 573.545 200.943C573.9 219.14 559.234 240.519 535.535 243.647C518.503 245.895 501.116 246.319 484.014 242.853C473.616 240.746 466.65 236.229 457.266 225.642C454.867 228.177 452.698 230.84 450.139 233.107C440.559 241.593 428.891 244.864 416.048 244.739C404.13 244.622 392.204 244.485 380.298 243.985C367.051 243.428 356.795 237.209 348.465 227.774C347.968 227.21 347.548 226.586 347.799 226.914C340.044 231.84 332.998 236.975 325.285 240.943C321.296 242.996 316.144 243.652 311.483 243.774C297.982 244.127 284.464 243.89 270.43 243.841Z" fill="#FFF9E7"/>
<path d="M412.163 208.812C414.65 208.811 416.593 208.947 418.507 208.783C424.778 208.244 427.744 205.187 427.818 199.258C427.873 194.863 427.959 190.464 427.824 186.073C427.631 179.807 423.492 176.889 417.116 178.377C406.236 180.917 395.413 183.699 384.472 185.974C364.805 190.064 341.934 176.019 339.728 157.08C338.095 143.068 338.205 128.624 339.746 114.591C341.703 96.7539 362.088 80.6572 381.052 80.3014C395.908 80.0226 410.777 80.0492 425.634 80.2802C442.55 80.5431 459.849 94.938 464.144 112.603C465.58 118.51 465.462 124.757 466.142 131.752C460.53 131.752 455.926 132.095 451.45 131.53C450.204 131.373 448.821 128.642 448.388 126.894C446.963 121.142 447.111 114.77 444.512 109.608C440.057 100.762 431.355 96.8129 421.104 96.646C408.755 96.4449 396.4 96.5743 384.047 96.6093C370.771 96.647 357.436 104.563 355.82 120.648C354.738 131.422 355.492 142.513 356.794 153.313C358.331 166.062 370.329 172.929 383.634 169.898C394.727 167.371 405.812 164.807 416.943 162.441C429.938 159.679 444.487 170.692 444.729 183.386C444.831 188.695 444.242 194.059 444.843 199.308C446.209 211.229 435.735 223.626 422.234 224.455C407.871 225.337 393.291 225.153 378.966 223.852C366.679 222.737 358.343 210.834 359.535 198.03C362.052 198.03 364.662 198.03 367.273 198.03C369.942 198.03 372.612 198.03 375.127 198.03C378.689 208.229 379.558 208.811 390.762 208.812C397.71 208.813 404.659 208.812 412.163 208.812Z" fill="#FFF9E7"/>
<path d="M269.921 223.341C259.361 220.393 251.473 212.012 251.44 202.958C251.29 161.973 251.374 120.988 251.374 79.2444C256.23 79.2444 260.975 79.0585 265.681 79.3895C266.716 79.4623 268.058 81.2414 268.449 82.4674C268.931 83.976 268.565 85.7285 268.565 87.3755C268.566 124.526 268.565 161.677 268.567 198.827C268.567 205.807 270.724 208.013 278.052 208.089C287.694 208.19 297.339 208.191 306.982 208.089C314.935 208.005 317.334 205.554 317.341 197.762C317.361 173.788 317.329 149.814 317.358 125.84C317.367 118.353 321.914 112.922 329.057 110.941C332.947 109.863 334.285 110.684 334.233 114.588C334.076 126.298 334.174 138.012 334.174 149.724C334.175 166.012 333.787 182.311 334.291 198.584C334.756 213.603 321.249 225.177 307.283 224.304C295.014 223.537 282.678 223.742 269.921 223.341Z" fill="#FFF9E7"/>
<path d="M486.431 170.341C486.431 179.678 486.385 188.465 486.445 197.252C486.502 205.585 489.842 208.744 498.638 208.804C506.933 208.861 515.23 208.837 523.526 208.811C533.082 208.781 536.297 205.767 536.299 196.846C536.306 162.797 536.294 128.747 536.305 94.6979C536.307 85.9031 542.439 80.3178 552.469 80.3777C552.469 82.3463 552.469 84.3218 552.469 86.2972C552.469 124.008 552.029 161.726 552.717 199.425C552.946 211.969 542.852 223.825 530.705 224.253C517.295 224.726 503.783 224.967 490.436 223.921C478.499 222.985 469.857 210.81 470.07 200.6C470.591 175.714 470.214 150.811 470.253 125.914C470.266 117.553 476.936 111.341 486.431 111.178C486.431 130.719 486.431 150.255 486.431 170.341Z" fill="#FFF9E7"/>
<path d="M127.884 203.355C129.121 208.539 128.35 212.831 125.341 217.163C120.945 223.49 117.317 230.303 113.475 236.968C110.747 241.699 106.302 244.554 101.016 244.65C81.7829 245.001 62.538 244.789 42.0054 244.789C60.7003 214.129 78.9341 184.225 97.6862 153.472C100.952 158.877 104.021 163.25 106.312 167.963C108.28 172.011 106.6 175.887 104.286 179.634C95.0328 194.611 85.9511 209.683 76.1725 225.761C83.7482 225.761 90.1739 226.064 96.525 225.545C98.0741 225.418 99.6682 222.755 100.747 220.987C106.374 211.762 111.834 202.446 117.38 193.177C117.838 192.411 118.509 191.76 119.764 190.213C122.567 194.814 125.066 198.917 127.884 203.355Z" fill="#FFF9E7"/>
<path d="M195.306 169.118C194.988 170.46 194.415 172.262 193.826 172.266C179.911 172.376 175.066 174.105 167.336 160.386C159.368 146.241 150.566 132.518 141.845 118.141C138.328 123.8 134.981 128.839 132.094 134.105C131.47 135.242 132.067 137.424 132.837 138.736C138.39 148.194 144.146 157.545 149.8 166.95C150.687 168.426 151.383 170.005 152.618 172.416C147.066 172.416 142.218 173.361 138.066 172.153C133.835 170.922 129.243 168.309 126.66 165C121.355 158.203 116.489 150.857 113.027 143.1C111.163 138.926 110.734 132.526 112.832 128.696C121.608 112.676 131.585 97.2477 141.632 80.7651C159.651 110.444 177.347 139.592 195.306 169.118Z" fill="#FFF9E7"/>
<path d="M228.474 225.4C233.298 231.338 237.624 237.267 242.75 244.292C204.803 244.292 168.574 244.292 132.337 244.292C133.953 233.057 142.207 225.91 153.425 225.854C178.275 225.731 203.126 225.549 228.474 225.4Z" fill="#FFF9E7"/>
<path d="M184.449 189.212C189.052 189.211 193.107 189.156 197.159 189.221C207.467 189.386 213.711 194.693 218.734 207.981C196.925 207.981 175.395 207.981 153.032 207.981C155.705 203.551 157.928 199.601 160.42 195.81C163.167 191.631 167.046 189.646 172.5 190.007C176.262 190.257 180.097 189.512 184.449 189.212Z" fill="#FFF9E7"/>
</g>
<defs>
<clipPath id="clip0_629_295">
<rect width="593" height="322" fill="white"/>
</clipPath>
</defs>
</svg>
