<svg width="50" height="25" viewBox="0 0 50 25" fill="none" xmlns="http://www.w3.org/2000/svg">
<g clip-path="url(#clip0_642_402)">
<path d="M50.05 13.9533C49.9288 14.0814 49.821 14.2188 49.6838 14.2805C49.3381 14.4359 48.9847 14.3826 48.6922 14.1476C48.2226 13.7704 47.7748 13.3611 47.3259 12.955C46.8959 12.5659 46.4394 12.2289 45.8778 12.1132C45.5204 12.0396 45.1909 12.164 44.8822 12.3578C44.1768 12.8006 43.6921 13.4662 43.3025 14.2134C42.8661 15.0502 42.4724 15.9129 42.0349 16.749C41.8024 17.1934 41.5425 17.628 41.2464 18.0251C41.0189 18.3302 40.6725 18.4207 40.3075 18.3307C40.0806 18.2748 39.8776 18.0162 39.8512 17.7585C39.8096 17.3527 39.9101 16.983 40.1033 16.6359C40.8466 15.3008 41.6082 13.9767 42.317 12.6207C42.5233 12.2262 42.6331 11.7469 42.6872 11.2927C42.7743 10.5609 42.3183 10.2148 41.7727 10.0549C41.2627 9.90534 40.8414 10.1037 40.4563 10.4492C39.6886 11.1379 39.2611 12.0675 38.8435 13.014C38.4344 13.9415 38.0054 14.8609 37.5389 15.756C37.3237 16.1689 36.6531 16.3118 36.3793 15.9182C36.1903 15.6465 36.1897 15.3262 36.297 15.043C36.4468 14.6475 36.6497 14.2733 36.8492 13.9021C37.3881 12.8992 37.9611 11.9165 38.4725 10.898C38.738 10.3691 38.9272 9.78949 38.9504 9.16968C38.9751 8.50775 38.5578 8.25953 38.0933 8.2298C37.2853 8.17811 36.7412 8.63778 36.2943 9.31287C35.8251 10.0218 35.5854 10.8349 35.2964 11.6295C35.1044 12.1576 34.8999 12.6841 34.6543 13.1848C34.455 13.5913 34.1216 13.699 33.7976 13.5469C33.5256 13.4191 33.3786 12.9699 33.4706 12.5819C33.6437 11.8518 34.0087 11.2187 34.3454 10.5724C34.7568 9.78264 35.2256 9.01735 35.4139 8.12266C35.548 7.48539 35.4395 7.12261 34.7389 6.98271C34.0302 6.84117 33.552 7.19563 33.1512 7.74786C32.6742 8.40514 32.4315 9.18904 32.1516 9.95138C31.9712 10.4425 31.8374 10.9572 31.4462 11.3267C31.2241 11.5365 30.9221 11.6256 30.712 11.509C30.476 11.3779 30.3964 11.106 30.4455 10.7496C30.5342 10.1044 30.9035 9.59371 31.1346 9.01717C31.3483 8.48408 31.5968 7.96889 31.5616 7.35087C31.5464 7.08513 31.3728 6.8541 31.1611 6.77261C30.5557 6.53964 29.9851 6.69272 29.4651 7.01765C29.0199 7.29577 28.5874 7.61933 28.2077 7.99155C27.5341 8.65167 27.2221 9.54349 27.0025 10.4699C26.7868 11.3798 26.6509 12.303 26.6474 13.2466C26.6456 13.7441 26.5835 14.2434 26.6078 14.7385C26.644 15.4751 26.7237 16.2098 26.8007 16.9434C26.9573 18.4348 27.4028 19.8425 27.923 21.2231C28.1278 21.7666 28.4133 22.2745 28.6283 22.8142C28.7401 23.0946 28.794 23.4058 28.8468 23.7086C28.9564 24.3377 28.2897 24.6311 27.8263 24.4212C27.5385 24.2907 27.4112 24.038 27.2908 23.7774C26.9769 23.0979 26.683 22.4078 26.3773 21.7239C26.3184 21.5922 26.2506 21.4629 26.1715 21.3444C26.0578 21.1743 25.9066 21.1938 25.8795 21.4024C25.8337 21.7561 25.8308 22.1177 25.8289 22.4761C25.8256 23.0918 25.8621 23.7091 25.8313 24.3228C25.8164 24.6213 25.6094 24.8525 25.3857 25.038C25.1656 25.0537 24.9311 25.0537 24.6733 25.0537C24.6378 25.0136 24.6366 24.9612 24.6116 24.9353C24.126 24.4327 24.1972 23.7973 24.2257 23.1626C24.2513 22.5922 24.2477 22.02 24.241 21.4489C24.2401 21.3776 24.1522 21.2763 24.0839 21.2492C24.0442 21.2334 23.9365 21.3233 23.9053 21.3903C23.697 21.8367 23.5069 22.2929 23.2995 22.7398C23.0812 23.2104 22.8671 23.685 22.6181 24.1366C22.474 24.3978 22.2 24.5204 21.9271 24.4991C21.6463 24.4773 21.3488 24.379 21.2738 24.0239C21.1922 23.6383 21.2501 23.2577 21.4237 22.9043C21.9871 21.7571 22.4839 20.5777 22.8021 19.3244C22.999 18.549 23.1623 17.7611 23.2915 16.9695C23.3859 16.3911 23.4077 15.7981 23.4475 15.2105C23.477 14.7768 23.5203 14.3386 23.4923 13.9073C23.4353 13.032 23.3457 12.1585 23.2478 11.2872C23.1645 10.5447 22.9526 9.84195 22.659 9.15989C22.3586 8.46211 21.9097 7.92049 21.3326 7.48473C20.8434 7.11532 20.3427 6.77709 19.7342 6.68117C19.4191 6.63149 18.763 6.71238 18.5934 7.07057C18.445 7.38394 18.4832 7.68704 18.5957 7.97578C18.8745 8.69103 19.1849 9.39191 19.4696 10.1046C19.5905 10.4073 19.742 10.708 19.6534 11.0645C19.5211 11.5972 19.0808 11.7336 18.6931 11.3683C18.3692 11.063 18.2097 10.6602 18.0469 10.2486C17.7492 9.49617 17.4574 8.73863 17.1132 8.01051C16.8464 7.44588 16.3998 7.07041 15.8043 6.93686C15.393 6.84462 14.8003 7.11303 14.6864 7.46735C14.5779 7.80514 14.6314 8.16008 14.7672 8.46432C15.1384 9.29604 15.5559 10.1037 15.9357 10.9312C16.1867 11.4781 16.4575 12.0253 16.6224 12.6044C16.7977 13.2198 16.4306 13.6521 15.9502 13.5965C15.6271 13.559 15.4423 13.2912 15.3228 12.9995C15.1034 12.4639 14.8952 11.9215 14.7119 11.3706C14.4406 10.5551 14.1604 9.74436 13.643 9.06691C13.1685 8.44551 12.5096 8.06295 11.7048 8.28141C11.2826 8.39602 11.0545 8.92867 11.1649 9.45394C11.4078 10.6105 11.9253 11.6283 12.5076 12.6169C12.908 13.2968 13.3092 13.9765 13.6946 14.6662C13.8585 14.9595 13.8865 15.3011 13.8451 15.6347C13.7951 16.0378 13.3684 16.2463 12.9893 16.0942C12.6952 15.9762 12.5016 15.745 12.3692 15.4666C11.9854 14.6594 11.5976 13.8525 11.2589 13.0231C10.9219 12.198 10.5168 11.4238 9.96371 10.7503C9.66197 10.3829 9.28326 10.1186 8.82136 10.0059C8.01989 9.81036 7.21098 10.6974 7.41462 11.5503C7.60259 12.3376 7.95079 13.0429 8.34236 13.7282C8.91084 14.7231 9.48883 15.7118 10.044 16.7152C10.2098 17.0148 10.2898 17.357 10.2519 17.7208C10.1966 18.2515 9.72287 18.4879 9.22014 18.2899C8.92743 18.1746 8.74397 17.9428 8.60621 17.684C8.12331 16.7768 7.67142 15.8507 7.19764 14.9378C6.79383 14.1598 6.38725 13.3795 5.75584 12.7784C5.35708 12.3989 4.92065 12.065 4.35627 12.1034C3.85191 12.1378 3.42098 12.3999 3.03209 12.7357C2.49867 13.1962 1.98083 13.6787 1.43452 14.1206C0.955845 14.5078 0.47145 14.4376 0.0685169 13.9785C0.0500366 13.7084 0.0500366 13.4384 0.0687648 13.1432C0.2247 12.9304 0.340851 12.7178 0.503159 12.56C0.945696 12.1299 1.38808 11.6946 1.86591 11.3125C3.04305 10.3713 4.29634 9.559 5.61692 8.86931C6.71534 8.29565 7.80448 7.70001 8.91565 7.15646C9.76016 6.74335 10.6233 6.36865 11.4951 6.0269C12.9552 5.45457 14.4432 4.98028 15.9945 4.78561C16.6594 4.70218 17.3254 4.6073 17.9932 4.57952C18.6371 4.55273 19.2848 4.58835 19.929 4.62963C20.3664 4.65767 20.8071 4.71078 21.2349 4.80976C21.9065 4.96517 22.5686 5.16873 23.2242 5.349C23.3983 4.45297 23.5506 3.53908 23.7577 2.63978C23.9742 1.69976 24.6443 1.13344 25.4752 1.27796C25.6905 0.889292 25.8818 0.482653 26.256 0.22909C26.3029 0.197256 26.3194 0.113442 26.35 0.0537109C26.7344 0.0537107 27.1188 0.0537107 27.5119 0.0712917C27.622 0.133975 27.7288 0.168975 27.8231 0.227218C27.906 0.278325 28.045 0.37212 28.0357 0.417777C28.0145 0.521006 27.9257 0.615829 27.8483 0.696085C27.7619 0.78575 27.6268 0.83482 27.5668 0.937871C27.3935 1.23584 27.2074 1.53691 27.0996 1.86461C26.9343 2.36667 26.7552 2.88603 26.7191 3.409C26.6742 4.05857 26.769 4.7193 26.8043 5.39152C27.1817 5.27401 27.4882 5.17411 27.7969 5.08331C28.9086 4.75635 30.038 4.57134 31.1937 4.5669C32.182 4.5631 33.167 4.58147 34.1416 4.78421C34.7914 4.91938 35.4534 5.0047 36.0898 5.19195C37.0235 5.46674 37.9527 5.77399 38.8591 6.13839C39.938 6.57212 41.0063 7.04499 42.0507 7.56694C43.1877 8.13517 44.2959 8.7708 45.4085 9.39401C45.8923 9.665 46.3737 9.9497 46.8241 10.2789C47.5655 10.8209 48.2925 11.3881 49.002 11.9775C49.3171 12.2392 49.5755 12.5802 49.8579 12.887C49.9255 12.9603 49.9862 13.041 50.05 13.1182C50.05 13.3882 50.05 13.6582 50.05 13.9533Z" fill="white"/>
<path d="M18.4636 19.1407C18.7598 19.0752 19.032 18.9905 19.3097 18.9503C19.7662 18.8841 20.3857 19.1654 20.3462 19.7464C20.3232 20.0856 20.1216 20.3316 19.8469 20.4523C19.0371 20.8085 18.226 20.822 17.4266 20.3867C17.061 20.1876 16.696 19.9427 16.264 20.0073C15.9893 20.0484 15.7274 20.1904 15.4528 20.2278C15.2871 20.2504 15.0749 20.2086 14.9436 20.1065C14.786 19.984 14.7804 19.7701 14.8387 19.5391C14.9659 19.0361 15.3166 18.8197 15.7248 18.719C16.3749 18.5587 17.017 18.6572 17.6364 18.9244C17.8426 19.0134 18.0511 19.0973 18.2625 19.1701C18.3143 19.1878 18.3818 19.1524 18.4636 19.1407Z" fill="white"/>
<path d="M17.8882 22.329C17.7159 22.251 17.5621 22.1768 17.4019 22.1264C16.9307 21.9784 16.4807 21.9888 16.0613 22.3186C15.9151 22.4335 15.7395 22.5322 15.5645 22.5703C15.3864 22.609 15.1273 22.6419 15.0201 22.5382C14.8354 22.3596 14.7406 22.0758 14.8228 21.7738C14.9994 21.1239 15.469 20.82 16.02 20.6534C16.4831 20.5134 16.9434 20.5878 17.403 20.7698C17.7388 20.9027 18.1042 20.9639 18.4617 21.0139C18.7316 21.0517 19.0098 21.0207 19.2844 21.0216C19.6627 21.0228 19.9603 21.3309 19.9999 21.7612C20.0287 22.0739 19.7745 22.3864 19.4424 22.4753C18.9907 22.5963 18.5531 22.5019 18.1141 22.4018C18.0434 22.3857 17.9739 22.3633 17.8882 22.329Z" fill="white"/>
<path d="M31.1392 19.1397C31.5747 18.9856 31.9797 18.7613 32.4061 18.6939C33.0345 18.5947 33.6826 18.5603 34.1874 19.1444C34.3963 19.3861 34.4284 19.6571 34.3932 19.9509C34.3701 20.1431 34.0482 20.3185 33.8419 20.2654C33.6628 20.2193 33.4751 20.1859 33.3114 20.1015C32.9161 19.8975 32.5455 19.992 32.1964 20.197C31.567 20.5665 30.9065 20.7861 30.1888 20.6923C29.7176 20.6307 29.2183 20.5461 28.968 20.0313C28.7185 19.518 29.0539 19.1 29.494 18.9835C29.8204 18.8971 30.1417 18.9726 30.4643 19.0762C30.6699 19.1423 30.8995 19.1216 31.1392 19.1397Z" fill="white"/>
<path d="M33.3397 22.4366C32.973 22.1514 32.592 21.9498 32.1485 22.0498C31.8541 22.1163 31.5747 22.256 31.2845 22.3479C30.7903 22.5043 30.2852 22.6275 29.7752 22.4677C29.3361 22.3301 29.1994 22.0575 29.2579 21.679C29.3164 21.3011 29.5926 20.9685 30.0073 21.0226C30.4956 21.0863 30.977 21.036 31.45 20.9101C31.7358 20.8341 32.0076 20.6923 32.2949 20.6279C33.0791 20.452 33.9805 20.7709 34.342 21.5992C34.4655 21.8821 34.4422 22.1841 34.2846 22.4525C34.1673 22.6523 33.9702 22.6682 33.7793 22.6211C33.6331 22.585 33.4953 22.5093 33.3397 22.4366Z" fill="white"/>
</g>
<defs>
<clipPath id="clip0_642_402">
<rect width="50" height="25" fill="white"/>
</clipPath>
</defs>
</svg>
